<svg width="141" height="25" viewBox="0 0 141 25" fill="none" xmlns="http://www.w3.org/2000/svg">
<path d="M138.353 19.3617V14.7108H141V19.3617C141 22.9751 139.819 24.7282 136.206 24.7282C132.521 24.7282 130.839 22.9751 130.839 19.3617V2.58252H133.88V7.3408H141V10.0956H133.88V19.3617C133.88 21.1148 134.632 21.9376 136.242 21.9376C137.78 21.9376 138.353 21.1148 138.353 19.3617Z" fill="white"/>
<path d="M125.848 19.3615V18.1451H128.782V19.3615C128.782 22.9392 127.208 24.728 123.523 24.728C119.909 24.728 118.192 23.0108 118.192 19.3615V12.4925C118.192 8.87903 119.909 7.12598 123.558 7.12598C127.208 7.12598 128.782 8.87903 128.782 12.4925V13.6373H125.884V12.4925C125.884 10.7394 125.133 9.91654 123.558 9.91654C121.984 9.91654 121.197 10.7394 121.197 12.4925V19.3615C121.197 21.1146 121.984 21.9375 123.523 21.9375C125.133 21.9375 125.848 21.1146 125.848 19.3615Z" fill="white"/>
<path d="M116.103 18.5745V19.3615C116.103 22.9392 114.35 24.728 110.665 24.728C107.052 24.728 105.335 23.0108 105.335 19.3615V12.4925C105.335 8.87903 107.052 7.12598 110.701 7.12598C114.35 7.12598 116.103 8.87903 116.103 12.4925V16.7499H108.34V19.4331C108.34 21.1504 109.127 22.009 110.665 22.009C112.275 22.009 113.062 21.1504 113.062 19.4331V18.5745H116.103ZM113.062 14.4602V12.4209C113.062 10.7036 112.311 9.84499 110.701 9.84499C109.127 9.84499 108.34 10.7036 108.34 12.4209V14.4602H113.062Z" fill="white"/>
<path d="M103.251 24.5134H100.139V12.2778C100.139 10.5963 99.3516 9.84499 97.9206 9.84499C96.4895 9.84499 95.8813 10.5605 95.3447 12.3493V24.5134H92.2679V7.34064H95.13L95.2373 9.80922H95.3805C96.1318 7.94884 97.3124 7.12598 99.137 7.12598C101.57 7.12598 103.251 8.73592 103.251 11.7054V24.5134Z" fill="white"/>
<path d="M90.1845 24.5134H87.0719V12.2778C87.0719 10.5963 86.2848 9.84499 84.8538 9.84499C83.4227 9.84499 82.8145 10.5605 82.2779 12.3493V24.5134H79.2011V7.34064H82.0632L82.1705 9.80922H82.3136C83.0649 7.94884 84.2456 7.12598 86.0702 7.12598C88.503 7.12598 90.1845 8.73592 90.1845 11.7054V24.5134Z" fill="white"/>
<path d="M77.1118 12.4925V19.3615C77.1118 23.0465 75.3946 24.728 71.7454 24.728C68.0961 24.728 66.3789 23.0465 66.3789 19.3615V12.4925C66.3789 8.80747 68.0961 7.12598 71.7454 7.12598C75.3946 7.12598 77.1118 8.80747 77.1118 12.4925ZM74.1066 19.3615V12.4925C74.1066 10.7394 73.3195 9.91654 71.7454 9.91654C70.1712 9.91654 69.3841 10.7394 69.3841 12.4925V19.3615C69.3841 21.1146 70.1712 21.9375 71.7454 21.9375C73.3195 21.9375 74.1066 21.1146 74.1066 19.3615Z" fill="white"/>
<path d="M61.3243 18.9684V14.8183H64.3653V18.7895C64.3653 22.7607 62.4691 24.7284 58.8915 24.7284C55.2065 24.7284 53.3103 22.5818 53.3103 18.7179V6.48236C53.3103 2.51117 55.2065 0.543457 58.7841 0.543457C62.3976 0.543457 64.3653 2.51117 64.3653 6.44658V9.27293H61.3243V6.44658C61.3243 4.5862 60.5014 3.54868 58.8915 3.54868C57.3173 3.54868 56.4944 4.55043 56.4944 6.41081V18.9684C56.4944 20.793 57.21 21.7589 58.8915 21.7589C60.5014 21.7589 61.3243 20.8645 61.3243 18.9684Z" fill="white"/>
<path d="M51.2956 24.5134H48.1831V12.2778C48.1831 10.5963 47.4318 9.84499 46.0723 9.84499C44.677 9.84499 44.1046 10.5605 43.6037 12.3493V24.5134H40.6342V12.2778C40.6342 10.5963 39.8829 9.84499 38.5234 9.84499C37.1281 9.84499 36.5557 10.5605 36.0548 12.3493V24.5134H32.9781V7.34064H35.8402L35.9475 9.80922H36.0906C36.8061 7.94884 37.951 7.12598 39.6683 7.12598C41.4929 7.12598 42.8882 8.12772 43.3533 10.0239C44.3192 7.76995 45.6787 7.12598 47.2887 7.12598C49.6499 7.12598 51.2956 8.73592 51.2956 11.7054V24.5134Z" fill="white"/>
<path d="M19.9811 7.34082H23.0937V19.3617C23.0937 21.2937 23.7734 22.0092 25.3118 22.0092C26.8502 22.0092 27.3868 21.2937 27.8162 19.2186V7.34082H30.8929V24.5135H27.9951L27.9235 22.045H27.7804C26.9933 23.9769 25.8842 24.7282 23.9881 24.7282C21.0544 24.7282 19.9811 22.8321 19.9811 19.326V7.34082Z" fill="white"/>
<path d="M17.922 24.5135H14.8452V0.47168H17.922V24.5135Z" fill="white"/>
<path d="M13.3401 24.5139H10.1918L9.26159 18.9328H4.89685L4.03822 24.5139H0.925659L4.96841 0.758301H9.29736L13.3401 24.5139ZM7.00767 5.76701L5.32617 16.178H8.83227L7.15077 5.76701H7.00767Z" fill="white"/>
</svg>
