<svg width="141" height="25" viewBox="0 0 141 25" fill="none" xmlns="http://www.w3.org/2000/svg">
<path d="M138.02 19.4411V14.7745H140.676V19.4411C140.676 23.0668 139.491 24.8257 135.866 24.8257C132.168 24.8257 130.481 23.0668 130.481 19.4411V2.60522H133.532V7.37958H140.676V10.1437H133.532V19.4411C133.532 21.2001 134.286 22.0257 135.902 22.0257C137.445 22.0257 138.02 21.2001 138.02 19.4411Z" fill="#006600"/>
<path d="M125.473 19.441V18.2205H128.416V19.441C128.416 23.0307 126.837 24.8256 123.14 24.8256C119.514 24.8256 117.791 23.1025 117.791 19.441V12.5487C117.791 8.92304 119.514 7.16406 123.175 7.16406C126.837 7.16406 128.416 8.92304 128.416 12.5487V13.6974H125.509V12.5487C125.509 10.7897 124.755 9.96406 123.175 9.96406C121.596 9.96406 120.806 10.7897 120.806 12.5487V19.441C120.806 21.2 121.596 22.0256 123.14 22.0256C124.755 22.0256 125.473 21.2 125.473 19.441Z" fill="#006600"/>
<path d="M115.695 18.6512V19.441C115.695 23.0307 113.936 24.8256 110.239 24.8256C106.613 24.8256 104.89 23.1025 104.89 19.441V12.5487C104.89 8.92304 106.613 7.16406 110.275 7.16406C113.936 7.16406 115.695 8.92304 115.695 12.5487V16.8205H107.906V19.5128C107.906 21.2359 108.695 22.0974 110.239 22.0974C111.854 22.0974 112.644 21.2359 112.644 19.5128V18.6512H115.695ZM112.644 14.523V12.4769C112.644 10.7538 111.89 9.89227 110.275 9.89227C108.695 9.89227 107.906 10.7538 107.906 12.4769V14.523H112.644Z" fill="#006600"/>
<path d="M102.8 24.6102H99.6766V12.3333C99.6766 10.6461 98.8869 9.89227 97.451 9.89227C96.0151 9.89227 95.4048 10.6102 94.8664 12.4051V24.6102H91.7792V7.37945H94.651L94.7587 9.85637H94.9023C95.6561 7.9897 96.8407 7.16406 98.6715 7.16406C101.113 7.16406 102.8 8.77945 102.8 11.7589V24.6102Z" fill="#006600"/>
<path d="M89.6887 24.6102H86.5656V12.3333C86.5656 10.6461 85.7759 9.89227 84.34 9.89227C82.9041 9.89227 82.2938 10.6102 81.7554 12.4051V24.6102H78.6682V7.37945H81.54L81.6477 9.85637H81.7913C82.5451 7.9897 83.7298 7.16406 85.5605 7.16406C88.0015 7.16406 89.6887 8.77945 89.6887 11.7589V24.6102Z" fill="#006600"/>
<path d="M76.5719 12.5487V19.441C76.5719 23.1384 74.8488 24.8256 71.1873 24.8256C67.5257 24.8256 65.8026 23.1384 65.8026 19.441V12.5487C65.8026 8.85124 67.5257 7.16406 71.1873 7.16406C74.8488 7.16406 76.5719 8.85124 76.5719 12.5487ZM73.5565 19.441V12.5487C73.5565 10.7897 72.7667 9.96406 71.1873 9.96406C69.6078 9.96406 68.818 10.7897 68.818 12.5487V19.441C68.818 21.2 69.6078 22.0256 71.1873 22.0256C72.7667 22.0256 73.5565 21.2 73.5565 19.441Z" fill="#006600"/>
<path d="M60.731 19.0462V14.8821H63.7823V18.8667C63.7823 22.8514 61.8797 24.8257 58.29 24.8257C54.5925 24.8257 52.69 22.6719 52.69 18.7949V6.51803C52.69 2.53341 54.5925 0.559052 58.1823 0.559052C61.8079 0.559052 63.7823 2.53341 63.7823 6.48213V9.31803H60.731V6.48213C60.731 4.61546 59.9054 3.57444 58.29 3.57444C56.7105 3.57444 55.8848 4.57956 55.8848 6.44623V19.0462C55.8848 20.877 56.6028 21.8462 58.29 21.8462C59.9054 21.8462 60.731 20.9488 60.731 19.0462Z" fill="#006600"/>
<path d="M50.6684 24.6102H47.5454V12.3333C47.5454 10.6461 46.7915 9.89227 45.4274 9.89227C44.0274 9.89227 43.453 10.6102 42.9505 12.4051V24.6102H39.971V12.3333C39.971 10.6461 39.2171 9.89227 37.853 9.89227C36.453 9.89227 35.8787 10.6102 35.3761 12.4051V24.6102H32.2889V7.37945H35.1607L35.2684 9.85637H35.412C36.13 7.9897 37.2787 7.16406 39.0018 7.16406C40.8325 7.16406 42.2325 8.16919 42.6992 10.0718C43.6684 7.81022 45.0325 7.16406 46.6479 7.16406C49.0171 7.16406 50.6684 8.77945 50.6684 11.7589V24.6102Z" fill="#FDC800"/>
<path d="M19.2481 7.37946H22.3712V19.441C22.3712 21.3795 23.0532 22.0974 24.5968 22.0974C26.1404 22.0974 26.6788 21.3795 27.1096 19.2974V7.37946H30.1968V24.6102H27.2891L27.2173 22.1333H27.0737C26.284 24.0718 25.1712 24.8256 23.2686 24.8256C20.325 24.8256 19.2481 22.923 19.2481 19.4051V7.37946Z" fill="#FDC800"/>
<path d="M17.182 24.6103H14.0948V0.487183H17.182V24.6103Z" fill="#FDC800"/>
<path d="M12.5846 24.6103H9.42567L8.49234 19.0103H4.11285L3.25131 24.6103H0.128235L4.18464 0.774445H8.52823L12.5846 24.6103ZM6.2308 5.80008L4.54362 16.2462H8.06157L6.37439 5.80008H6.2308Z" fill="#FDC800"/>
</svg>
