<svg width="165" height="321" viewBox="0 0 165 321" fill="none" xmlns="http://www.w3.org/2000/svg">
<path d="M56.0108 314.867V305.046L38.4023 304.92L38.2529 319.772L39.3441 319.852C44.2028 320.162 64.0627 320.622 67.3248 319.611C70.9545 318.485 56.0108 314.867 56.0108 314.867Z" fill="#FF725E"/>
<path d="M67.7383 318.692C67.7383 318.853 61.1451 318.991 53.0243 318.991C44.9035 318.991 38.3103 318.853 38.3103 318.692C38.3103 318.531 44.9035 318.393 53.0243 318.393C61.1451 318.393 67.7383 318.531 67.7383 318.692Z" fill="#263238"/>
<path d="M56.3209 316.877C56.1716 316.797 56.3209 316.28 56.677 315.729C57.0331 315.177 57.5155 314.948 57.6304 315.062C57.7453 315.177 57.504 315.614 57.1594 316.085C56.8149 316.556 56.4703 316.958 56.3209 316.877Z" fill="#263238"/>
<path d="M57.4465 317.52C57.2857 317.52 57.3661 316.877 57.7107 316.268C58.0553 315.66 58.5148 315.292 58.6411 315.384C58.7675 315.476 58.5607 315.993 58.2391 316.533C57.9175 317.072 57.5958 317.578 57.4465 317.52Z" fill="#263238"/>
<path d="M43.617 318.646C43.5481 318.646 43.2839 318.439 42.9048 318.003C42.4421 317.442 41.9267 316.926 41.3657 316.464C40.8139 316.023 40.1567 315.734 39.4589 315.625C38.9191 315.556 38.5745 315.625 38.54 315.556C38.5056 315.487 38.8387 315.246 39.4704 315.2C40.3042 315.183 41.1175 315.459 41.7677 315.981C42.3769 316.478 42.8907 317.081 43.2839 317.762C43.5481 318.267 43.6859 318.6 43.617 318.646Z" fill="#263238"/>
<path d="M56.3783 315.028C56.4587 315.166 56.16 315.51 55.6546 315.694C55.1492 315.878 54.7013 315.809 54.6783 315.694C54.6553 315.579 55.0114 315.338 55.4479 315.177C55.8844 315.016 56.2864 314.89 56.3783 315.028Z" fill="#263238"/>
<path d="M56.1027 314.075C56.1027 314.247 55.6432 314.385 55.046 314.396C54.4487 314.408 53.9777 314.27 53.9892 314.109C54.0007 313.948 54.4716 313.799 55.046 313.787C55.6203 313.776 56.0797 313.914 56.1027 314.075Z" fill="#263238"/>
<path d="M99.3716 314.867V305.046L81.7631 304.92L81.6138 319.623L82.705 319.703C87.5637 320.013 107.435 320.622 110.686 319.611C114.315 318.485 99.3716 314.867 99.3716 314.867Z" fill="#FF725E"/>
<path d="M111.099 318.715C111.099 318.876 104.517 319.014 96.3851 319.014C88.2528 319.014 81.6826 318.876 81.6826 318.715C81.6826 318.554 88.2643 318.416 96.3851 318.416C104.506 318.416 111.099 318.554 111.099 318.715Z" fill="#263238"/>
<path d="M99.6818 316.877C99.5439 316.797 99.6818 316.28 100.038 315.729C100.394 315.177 100.876 314.948 100.991 315.062C101.106 315.177 100.865 315.614 100.52 316.085C100.176 316.556 99.8311 316.958 99.6818 316.877Z" fill="#263238"/>
<path d="M100.807 317.52C100.658 317.52 100.727 316.877 101.083 316.268C101.439 315.66 101.887 315.292 102.014 315.384C102.14 315.476 101.922 315.993 101.6 316.533C101.278 317.072 100.968 317.578 100.807 317.52Z" fill="#263238"/>
<path d="M86.9778 318.646C86.9089 318.646 86.6562 318.439 86.2657 318.003C85.803 317.442 85.2875 316.926 84.7265 316.464C84.1748 316.023 83.5175 315.734 82.8198 315.625C82.2914 315.556 81.9353 315.625 81.9009 315.556C81.8664 315.487 82.1995 315.246 82.8313 315.2C83.665 315.183 84.4783 315.459 85.1285 315.981C85.7409 316.475 86.2552 317.079 86.6447 317.762C86.9089 318.267 87.0467 318.6 86.9778 318.646Z" fill="#263238"/>
<path d="M99.7394 315.028C99.8198 315.166 99.5211 315.51 99.0157 315.694C98.5103 315.878 98.0624 315.809 98.0394 315.694C98.0164 315.579 98.3725 315.338 98.809 315.177C99.2454 315.016 99.6475 314.89 99.7394 315.028Z" fill="#263238"/>
<path d="M99.4865 314.075C99.4865 314.247 99.027 314.385 98.4297 314.396C97.8325 314.408 97.373 314.27 97.3845 314.109C97.396 313.948 97.8554 313.799 98.4297 313.787C99.0041 313.776 99.4865 313.914 99.4865 314.075Z" fill="#263238"/>
<path d="M164.246 23.2292C163.787 22.7583 162.65 22.988 162.65 22.988C162.764 22.3267 162.764 21.6507 162.65 20.9894C162.443 20.3462 160.996 20.4725 160.996 20.4725C160.929 19.9309 160.929 19.3831 160.996 18.8415C161.007 18.7214 160.982 18.6007 160.922 18.4959C160.862 18.391 160.772 18.3071 160.663 18.2557C159.978 17.9764 159.242 17.8434 158.503 17.8651C157.619 17.2334 161.203 12.2138 162.535 10.6058C163.867 8.99767 163.626 7.74567 162.443 7.74567C161.628 7.74567 157.447 12.5699 156.16 14.1895C154.874 15.8091 151.462 20.3117 151.347 16.7165C151.232 13.1213 149.785 10.4105 148.878 9.95105C147.97 9.49159 147.006 10.5713 147.499 11.5706C147.933 12.7059 148.204 13.8971 148.303 15.1084C148.428 16.0733 148.385 17.0526 148.177 18.003C147.796 19.7713 147.278 21.5072 146.626 23.1948H146.535C146.535 23.1948 121.471 47.2357 119.657 48.9471C118.037 50.4863 85.4618 47.1208 78.926 46.4316C76.7051 46.1066 74.4625 45.953 72.218 45.9722C69.3809 46.0985 68.8755 46.5005 66.0498 46.535C58.9139 46.6142 51.7945 47.2402 44.7542 48.4073C41.5663 48.9493 38.5885 50.3564 36.1457 52.4751C33.7029 54.5938 31.8889 57.3428 30.9017 60.422C24.32 80.9825 9.41074 129.65 6.78037 156.988C4.79273 160.592 2.99833 164.3 1.40478 168.095C-0.444519 173.126 0.00344791 173.298 0.62371 173.413C2.30071 173.723 4.20744 164.695 4.91959 166.877C5.63175 169.06 1.30141 177.64 3.05881 177.893C5.35608 178.214 7.18241 168.704 7.40065 167.946C7.61889 167.187 8.75603 167.429 8.54928 168.141C8.21618 169.152 4.98852 179.868 7.23984 180.213C8.48036 180.397 8.61819 178.134 8.61819 178.134C8.61819 178.134 10.9155 167.877 11.9607 168.083C13.006 168.29 11.8918 174.343 11.3634 176.365C10.8351 178.387 11.5702 179.409 12.6499 178.915C13.385 178.57 15.1424 172.425 15.6249 170.427C16.1073 168.428 17.3133 162.892 18.9329 166.096C20.5525 169.301 23.0106 171.162 24.0214 171.208C24.2491 171.181 24.4638 171.088 24.6378 170.938C24.8118 170.789 24.9371 170.591 24.9977 170.37C25.0582 170.149 25.0512 169.914 24.9775 169.697C24.9038 169.48 24.7668 169.29 24.5842 169.152C23.7148 168.303 22.9686 167.336 22.3673 166.28C21.8315 165.457 21.4428 164.548 21.2187 163.592C20.7558 161.687 20.4865 159.74 20.4147 157.78L20.2309 156.631C22.8038 143.893 30.2125 106.505 40.9063 82.625L45.2941 91.6533L47.2008 98.3383L35.5077 127.203L85.3813 126.549L77.9382 97.9019L86.9779 68.0374C96.7528 68.2556 121.85 68.6232 126.031 66.728C131.292 64.4307 158.503 30.0636 158.503 30.0636C160.277 28.6853 161.976 27.213 163.592 25.6529C163.592 25.6529 165.246 24.263 164.246 23.2292Z" fill="#FFBE9D"/>
<path d="M33.3137 105.873C34.761 100.934 42.1926 76.5143 42.1926 76.5143C42.1926 76.5143 45.8453 96.4201 44.8804 98.8208C43.9929 100.876 42.9444 102.858 41.7447 104.748C33.3137 117.578 34.4164 123.999 34.4164 123.999L85.3583 122.448C85.4731 115.327 81.2576 98.7633 80.3847 96.1215C79.5117 93.4796 82.4178 84.8304 82.4178 84.8304C82.4178 84.8304 88.1609 78.9839 87.9542 75.9745C87.8451 73.2712 87.5108 70.5818 86.9549 67.934L117.968 69.0827L116.992 48.0627L72.4476 43.606C70.897 47.9823 56.8722 45.8343 56.8722 45.8343C41.7332 46.3397 40.7913 49.1194 34.4968 54.0126C28.2023 58.9058 17.7842 100.9 17.7842 100.9L33.3137 105.873Z" fill="#FF725E"/>
<path d="M63.4309 100.9C62.5481 101.058 61.6489 101.104 60.7546 101.038C59.089 101.038 56.8033 100.923 54.2878 100.67C51.7722 100.417 49.498 100.061 47.8784 99.7397C46.9854 99.6247 46.1097 99.401 45.271 99.0735C46.169 99.0738 47.0651 99.1584 47.9473 99.3262C49.5784 99.5329 51.8412 99.8201 54.3452 100.073C56.8492 100.325 59.1235 100.498 60.766 100.613C61.6614 100.624 62.5537 100.72 63.4309 100.9Z" fill="#263238"/>
<path d="M66.9227 96.5695C66.0396 97.0021 65.1058 97.3224 64.143 97.5228C59.5604 98.727 54.8324 99.2876 50.0953 99.1883C49.115 99.2203 48.1347 99.1276 47.1777 98.9127C48.1452 98.7905 49.1204 98.7406 50.0953 98.7634C51.8986 98.7059 54.3797 98.5796 57.1134 98.258C59.8471 97.9363 62.2823 97.4769 64.0052 97.1093C64.9622 96.8538 65.9377 96.6733 66.9227 96.5695Z" fill="#263238"/>
<path d="M84.0605 77.2495C84.0373 78.1252 83.9178 78.9957 83.7044 79.8454C83.4058 81.442 82.9463 83.6244 82.3605 86.0135C81.7747 88.4027 81.2119 90.608 80.7065 92.1013C80.5033 92.956 80.2027 93.7846 79.8105 94.5708C79.8745 93.6978 80.0364 92.8348 80.293 91.9979C80.7295 90.206 81.2234 88.1385 81.7747 85.8757C82.3261 83.6129 82.8544 81.5453 83.2909 79.7535C83.4464 78.891 83.7048 78.0503 84.0605 77.2495Z" fill="#263238"/>
<path d="M33.8537 102.944C31.1964 102.534 28.5739 101.924 26.0086 101.118C23.3873 100.505 20.8149 99.6989 18.3127 98.7059C20.9688 99.123 23.5908 99.7333 26.1579 100.532C28.7798 101.143 31.3523 101.949 33.8537 102.944Z" fill="#263238"/>
<path d="M87.5064 67.6813C87.0731 67.7559 86.6302 67.7559 86.1969 67.6813C84.9971 67.5583 83.8191 67.2763 82.6936 66.8428C80.8146 66.1368 79.104 65.0454 77.6718 63.639C76.2396 62.2325 75.1175 60.542 74.3775 58.6761C73.5595 56.6234 73.2103 54.4141 73.3552 52.2093C73.4064 50.3907 73.9503 48.6201 74.9288 47.0864C75.6171 46.0531 76.6452 45.2932 77.8349 44.9384C78.1528 44.8507 78.4814 44.8082 78.8112 44.8121C79.0409 44.8121 79.1558 44.8121 79.1558 44.8121C79.1558 44.8121 78.6734 44.8121 77.9038 45.1222C76.8123 45.5254 75.8867 46.2813 75.2734 47.2701C73.7113 49.7282 73.2748 54.2194 74.9403 58.4119C75.7155 60.3887 76.929 62.1638 78.4896 63.6037C79.7683 64.7819 81.2411 65.7301 82.8429 66.4064C84.3461 67.0004 85.91 67.428 87.5064 67.6813Z" fill="#263238"/>
<path d="M114.281 68.6692C113.994 65.1468 113.902 61.6113 114.005 58.0788C113.915 54.5492 114.023 51.0174 114.327 47.4999C114.614 51.0184 114.707 54.5501 114.603 58.0788C114.699 61.6121 114.592 65.1482 114.281 68.6692Z" fill="#263238"/>
<path d="M72.1491 44.8925C72.2754 42.331 72.5396 39.4365 72.5396 39.4365C72.5396 39.4365 78.8801 38.7358 79.2591 32.1886C79.6382 25.6414 79.2591 10.5368 79.2591 10.5368L67.7728 4.65585L55.0229 14.6834L56.9871 47.4195L68.6802 48.1661C69.574 48.1908 70.4411 47.8601 71.0914 47.2464C71.7417 46.6327 72.122 45.7862 72.1491 44.8925Z" fill="#FFBE9D"/>
<path d="M73.2863 27.0082C73.2863 27.0082 73.2863 27.1346 73.1829 27.2839C73.0974 27.3922 72.9869 27.4781 72.8608 27.5341C72.7347 27.5902 72.5969 27.6147 72.4592 27.6055C71.7241 27.6055 71.012 26.7555 70.7593 25.7677C70.6392 25.2889 70.6392 24.7878 70.7593 24.309C70.7828 24.1 70.8582 23.9001 70.9786 23.7276C71.0989 23.5551 71.2604 23.4154 71.4484 23.3211C71.6029 23.2573 71.7764 23.2573 71.9309 23.3211C72.0454 23.378 72.1382 23.4708 72.1951 23.5853C72.2755 23.7806 72.1951 23.9069 72.1951 23.8954C72.1951 23.884 72.1951 23.7806 72.0802 23.6657C72.0201 23.5835 71.9319 23.5262 71.8322 23.505C71.7326 23.4838 71.6287 23.5002 71.5403 23.5509C71.3994 23.6361 71.2824 23.7555 71.2 23.8981C71.1177 24.0407 71.0728 24.2018 71.0694 24.3664C70.9727 24.7936 70.9727 25.2371 71.0694 25.6643C71.2991 26.5603 71.9194 27.2839 72.4707 27.3528C72.5786 27.3675 72.6883 27.3597 72.7931 27.3301C72.8978 27.3004 72.9953 27.2495 73.0795 27.1805C73.2173 27.0886 73.2633 26.9967 73.2863 27.0082Z" fill="#EB996E"/>
<path d="M83.1989 6.99905C82.3145 3.98964 79.1098 2.49641 76.1922 1.6694C71.747 0.405901 66.9457 -0.145446 62.6039 1.45115C58.2621 3.04775 53.0473 5.85042 53.0473 10.6402C50.4858 10.4335 49.0156 12.6733 48.0048 15.453C47.3585 17.1465 46.9713 18.9278 46.8561 20.7367C46.5345 27.0082 44.7771 35.6689 40.711 40.2635C38.4137 42.8249 35.232 44.5938 33.9225 47.787C32.7739 50.5552 33.3712 53.8403 32.303 56.643C31.3496 59.1125 29.2476 60.8699 27.7084 63.0179C26.1404 65.4546 25.2175 68.2499 25.0266 71.1413C24.8357 74.0326 25.3831 76.925 26.6172 79.5467C27.8602 82.1012 29.6103 84.3758 31.7608 86.2321C33.9113 88.0883 36.4172 89.4874 39.1258 90.3439C44.4912 91.9762 50.2126 92.032 55.6087 90.5047C59.6586 89.5363 63.4364 87.6631 66.6586 85.0257C69.9556 82.3333 72.22 78.5836 73.068 74.4123C73.8835 69.7259 72.5741 64.9591 71.5977 60.2956C68.5424 45.5587 69.4153 44.7891 73.2747 31.1089C73.3666 30.8677 73.4126 30.615 73.4815 30.3737C73.5504 30.1325 73.5849 30.0177 73.6308 29.8339C73.7404 29.2931 73.7981 28.7431 73.8031 28.1913C73.2394 28.401 72.6275 28.4453 72.0395 28.3192C71.4515 28.193 70.9117 27.9016 70.4835 27.4792C70.0544 27.0288 69.7553 26.4707 69.6177 25.864C69.4802 25.2573 69.5095 24.6247 69.7025 24.0333C69.9735 23.3865 70.3773 22.8038 70.8878 22.323C71.3983 21.8422 72.0041 21.4739 72.6659 21.2421C73.9409 20.7137 75.3078 20.4381 76.5598 19.8523C79.2131 18.5888 81.051 15.9699 82.303 13.2246C83.3323 11.322 83.65 9.11477 83.1989 6.99905Z" fill="#263238"/>
<path d="M73.7456 27.3184C73.9883 27.677 74.1888 28.0624 74.3429 28.467C74.6875 29.1906 75.147 30.2129 75.6524 31.396L75.7443 31.6143H75.503L74.3544 31.7176C73.5618 31.7176 72.8956 31.867 72.1146 31.8555C72.0466 31.8402 71.9835 31.8079 71.9313 31.7618C71.8791 31.7156 71.8394 31.6569 71.8159 31.5913C71.7817 31.4868 71.7817 31.3742 71.8159 31.2697C71.8425 31.1149 71.877 30.9615 71.9193 30.8102L72.1261 29.9947C72.23 29.4506 72.3917 28.9193 72.6085 28.4096C72.5871 28.9641 72.5062 29.5148 72.3673 30.0521L72.2065 30.8676C72.149 31.1433 72.0457 31.5683 72.2065 31.5339C72.7808 31.5339 73.5963 31.4075 74.3544 31.3616L75.503 31.2582L75.3537 31.5109C74.8598 30.3622 74.4463 29.2825 74.2051 28.5359C73.9935 28.1546 73.8387 27.7444 73.7456 27.3184Z" fill="#FF725E"/>
<path d="M34.4165 123.999L85.3583 122.448L107.527 208.986L103.449 308.251H76.5139L79.8104 211.1L60.1114 150.854L63.1438 312.099L35.9212 312.501L33.0611 160.939C32.9347 156.723 31.5564 147.224 32.0732 143.043L34.4165 123.999Z" fill="#263238"/>
<path d="M66.8883 152.083C66.0545 152.135 65.2173 152.085 64.3957 151.934C62.8566 151.75 60.7546 151.428 58.4458 150.969C56.1371 150.509 54.0695 149.981 52.5763 149.556C51.7781 149.38 51.0059 149.102 50.2791 148.729C50.2791 148.557 54.0236 149.453 58.6181 150.383C63.2127 151.313 66.9113 151.911 66.8883 152.083Z" fill="#455A64"/>
<path d="M103.174 302.806C103.174 302.967 97.0743 303.105 89.5508 303.105C82.0272 303.105 75.9165 302.967 75.9165 302.806C75.9165 302.646 82.0158 302.508 89.5508 302.508C97.0858 302.508 103.174 302.634 103.174 302.806Z" fill="#455A64"/>
<path d="M62.9025 307.906C62.9025 308.079 56.9755 308.205 49.6702 308.205C42.3649 308.205 36.4495 308.079 36.4495 307.906C36.4495 307.734 42.3764 307.608 49.6702 307.608C56.9641 307.608 62.9025 307.746 62.9025 307.906Z" fill="#455A64"/>
<path d="M59.3879 307.493C59.2271 307.493 58.5149 272.264 57.7913 228.812C57.0676 185.359 56.6426 150.107 56.792 150.107C56.9413 150.107 57.6764 185.324 58.3886 228.8C59.1007 272.276 59.5602 307.493 59.3879 307.493Z" fill="#455A64"/>
<path d="M99.5556 302.807C99.543 302.65 99.543 302.492 99.5556 302.336V300.957C99.5556 299.717 99.6475 297.936 99.7164 295.674C99.8772 291.079 100.107 284.405 100.394 276.227C101.014 259.779 101.887 237.105 102.841 212.076C102.841 211.835 102.841 211.605 102.841 211.398V211.479C96.8104 187.357 91.3544 165.464 87.3916 149.625L82.797 130.891C82.2687 128.697 81.8667 126.985 81.5795 125.791C81.4417 125.228 81.3498 124.791 81.2694 124.458C81.2246 124.309 81.1976 124.155 81.189 123.999C81.2486 124.144 81.2948 124.294 81.3268 124.447C81.4187 124.768 81.5335 125.205 81.6943 125.756C82.0045 126.905 82.4525 128.651 83.0268 130.833C84.1754 135.267 85.795 141.653 87.8166 149.521C91.8138 165.35 97.3273 187.185 103.438 211.341V211.421C103.438 211.628 103.438 211.869 103.438 212.099C102.416 237.128 101.485 259.79 100.808 276.239C100.452 284.428 100.153 291.056 99.9461 295.674C99.8313 297.971 99.7394 299.717 99.6819 300.957C99.6819 301.543 99.613 302.002 99.6016 302.336C99.6033 302.494 99.5878 302.652 99.5556 302.807Z" fill="#455A64"/>
<path d="M90.7684 209.377C88.8336 210.013 86.8406 210.455 84.8184 210.698C82.3374 211.123 80.2239 211.421 79.2705 211.467V211.237C79.5807 211.329 79.7415 211.387 79.7415 211.433C79.7415 211.479 79.5462 211.433 79.2246 211.433H78.5354L79.2246 211.226C80.1205 210.962 82.234 210.525 84.7151 210.077C86.7049 209.646 88.7325 209.411 90.7684 209.377Z" fill="#455A64"/>
<path d="M90.2976 212.673C88.5059 212.755 86.7105 212.675 84.9334 212.432C83.1392 212.395 81.3518 212.199 79.5923 211.846C83.182 211.553 86.7954 211.833 90.2976 212.673Z" fill="#455A64"/>
<path opacity="0.2" d="M34.1982 125.825C34.8016 126.6 35.5615 127.239 36.4283 127.7C37.2952 128.161 38.2496 128.434 39.2292 128.501C41.2809 128.744 43.3562 128.706 45.3974 128.387C58.5493 126.928 72.4822 125.584 85.3583 122.448C68.6917 123.379 51.0832 123.068 34.4165 123.999L34.2442 125.423" fill="black"/>
<g opacity="0.2">
<path d="M51.3704 149.315L60.7662 185.772L60.1115 150.854L51.3704 149.315Z" fill="black"/>
</g>
</svg>
