<svg width="65" height="6" viewBox="0 0 65 6" fill="none" xmlns="http://www.w3.org/2000/svg">
<g opacity="0.2">
<path d="M5.49091 3.05235C5.45702 3.51438 5.28824 3.95629 5.00551 4.32328C4.72277 4.69028 4.33853 4.96619 3.90043 5.11682C3.46233 5.26745 2.98964 5.28616 2.541 5.17063C2.09236 5.0551 1.68751 4.81043 1.37665 4.46693C1.06579 4.12343 0.862616 3.69621 0.792306 3.23831C0.721995 2.7804 0.787641 2.31193 0.981121 1.89099C1.1746 1.47005 1.48741 1.11518 1.88072 0.870373C2.27403 0.625564 2.73053 0.501592 3.19365 0.513844C3.83357 0.549501 4.43364 0.836029 4.8637 1.31124C5.29376 1.78645 5.51911 2.41205 5.49091 3.05235Z" fill="white"/>
<path d="M12.8077 3.08681C12.8303 3.41064 12.786 3.73562 12.6776 4.0416C12.5692 4.34758 12.399 4.628 12.1776 4.86539C11.9562 5.10279 11.6884 5.29209 11.3907 5.42152C11.093 5.55095 10.7718 5.61775 10.4472 5.61775C10.1226 5.61775 9.80148 5.55095 9.50378 5.42152C9.20609 5.29209 8.93821 5.10279 8.71681 4.86539C8.49541 4.628 8.32523 4.34758 8.21685 4.0416C8.10846 3.73562 8.0642 3.41064 8.0868 3.08681C8.0642 2.76299 8.10846 2.43798 8.21685 2.13199C8.32523 1.82601 8.49541 1.54559 8.71681 1.3082C8.93821 1.07081 9.20609 0.881506 9.50378 0.752077C9.80148 0.622647 10.1226 0.555847 10.4472 0.555847C10.7718 0.555847 11.093 0.622647 11.3907 0.752077C11.6884 0.881506 11.9562 1.07081 12.1776 1.3082C12.399 1.54559 12.5692 1.82601 12.6776 2.13199C12.786 2.43798 12.8303 2.76299 12.8077 3.08681Z" fill="white"/>
<path d="M20.1359 3.12126C20.102 3.58329 19.9333 4.0252 19.6505 4.39219C19.3678 4.75919 18.9836 5.0351 18.5454 5.18573C18.1073 5.33636 17.6347 5.35507 17.186 5.23954C16.7374 5.12401 16.3325 4.87934 16.0217 4.53584C15.7108 4.19234 15.5076 3.76513 15.4373 3.30722C15.367 2.84931 15.4327 2.38084 15.6261 1.9599C15.8196 1.53896 16.1324 1.18409 16.5257 0.939283C16.919 0.694475 17.3756 0.570502 17.8387 0.582754C18.4775 0.62132 19.0758 0.908691 19.5053 1.38324C19.9347 1.85778 20.1611 2.48174 20.1359 3.12126Z" fill="white"/>
<path d="M27.4528 3.15572C27.4189 3.61775 27.2502 4.05966 26.9674 4.42665C26.6847 4.79365 26.3004 5.06956 25.8623 5.22019C25.4242 5.37082 24.9516 5.38953 24.5029 5.274C24.0543 5.15847 23.6494 4.9138 23.3386 4.5703C23.0277 4.2268 22.8245 3.79962 22.7542 3.34171C22.6839 2.8838 22.7496 2.4153 22.9431 1.99436C23.1365 1.57342 23.4493 1.21855 23.8426 0.973741C24.2359 0.728933 24.6925 0.604961 25.1556 0.617212C25.7944 0.655778 26.3927 0.943149 26.8222 1.41769C27.2516 1.89224 27.478 2.5162 27.4528 3.15572Z" fill="white"/>
<path d="M34.7696 3.1787C34.7379 3.64141 34.5709 4.08461 34.2894 4.45321C34.0079 4.82181 33.6243 5.09954 33.1862 5.2519C32.7481 5.40426 32.275 5.42452 31.8255 5.31016C31.376 5.19581 30.9701 4.95189 30.6581 4.60871C30.3461 4.26552 30.1418 3.83822 30.0707 3.37991C29.9996 2.92159 30.0647 2.45251 30.258 2.03091C30.4513 1.60931 30.7643 1.25381 31.1579 1.00861C31.5516 0.763401 32.0087 0.639267 32.4723 0.651692C33.1091 0.690244 33.7056 0.976021 34.1348 1.44807C34.5639 1.92012 34.7917 2.54112 34.7696 3.1787Z" fill="white"/>
<path d="M42.0978 3.21315C42.0664 3.67348 41.9011 4.11458 41.6223 4.4822C41.3435 4.84981 40.9633 5.12793 40.5285 5.28226C40.0937 5.43658 39.6232 5.46041 39.175 5.35082C38.7268 5.24123 38.3205 5.00298 38.0059 4.66542C37.6914 4.32786 37.4824 3.90572 37.4047 3.45092C37.3269 2.99612 37.3839 2.52853 37.5685 2.10567C37.7531 1.68282 38.0573 1.32314 38.4436 1.07093C38.83 0.818724 39.2817 0.684975 39.743 0.686148C40.39 0.710099 41.0011 0.989526 41.4425 1.46318C41.8838 1.93683 42.1195 2.56611 42.0978 3.21315Z" fill="white"/>
<path d="M49.4146 3.24761C49.4372 3.57143 49.3929 3.89645 49.2845 4.20243C49.1762 4.50841 49.006 4.78883 48.7846 5.02622C48.5632 5.26361 48.2953 5.45291 47.9976 5.58234C47.6999 5.71177 47.3788 5.77854 47.0542 5.77854C46.7296 5.77854 46.4084 5.71177 46.1107 5.58234C45.813 5.45291 45.5451 5.26361 45.3237 5.02622C45.1023 4.78883 44.9322 4.50841 44.8238 4.20243C44.7154 3.89645 44.6711 3.57143 44.6937 3.24761C44.6711 2.92378 44.7154 2.59877 44.8238 2.29278C44.9322 1.9868 45.1023 1.70638 45.3237 1.46899C45.5451 1.2316 45.813 1.04233 46.1107 0.912902C46.4084 0.783473 46.7296 0.716673 47.0542 0.716673C47.3788 0.716673 47.6999 0.783473 47.9976 0.912902C48.2953 1.04233 48.5632 1.2316 48.7846 1.46899C49.006 1.70638 49.1762 1.9868 49.2845 2.29278C49.3929 2.59877 49.4372 2.92378 49.4146 3.24761Z" fill="white"/>
<path d="M56.7315 3.28207C56.7002 3.74239 56.5349 4.18353 56.2561 4.55115C55.9773 4.91877 55.5971 5.19685 55.1622 5.35117C54.7274 5.5055 54.257 5.52933 53.8088 5.41974C53.3606 5.31015 52.9542 5.07189 52.6397 4.73434C52.3251 4.39678 52.1162 3.97464 52.0385 3.51984C51.9607 3.06504 52.0177 2.59745 52.2023 2.17459C52.3869 1.75173 52.691 1.39205 53.0774 1.13985C53.4638 0.88764 53.9154 0.753925 54.3768 0.755098C55.0238 0.77905 55.6349 1.05844 56.0763 1.53209C56.5176 2.00575 56.7532 2.63502 56.7315 3.28207Z" fill="white"/>
<path d="M64.0481 3.31653C64.0164 3.77924 63.8495 4.22244 63.568 4.59104C63.2865 4.95964 62.9029 5.23737 62.4648 5.38973C62.0267 5.54209 61.5536 5.56238 61.1041 5.44803C60.6546 5.33367 60.2486 5.08972 59.9366 4.74654C59.6246 4.40335 59.4204 3.97605 59.3493 3.51774C59.2781 3.05942 59.3433 2.59034 59.5366 2.16874C59.7299 1.74714 60.0428 1.39164 60.4365 1.14644C60.8302 0.901231 61.2872 0.777132 61.7509 0.789557C62.3877 0.82811 62.9842 1.11385 63.4133 1.5859C63.8425 2.05795 64.0703 2.67895 64.0481 3.31653Z" fill="white"/>
</g>
</svg>
