<svg width="697" height="694" viewBox="0 0 697 694" fill="none" xmlns="http://www.w3.org/2000/svg">
<path d="M499.957 529.833L496.275 689.178H489.254L489.693 530.24L499.957 529.833Z" fill="#E0E0E0"/>
<path d="M525.339 528.073L559.518 689.178H567.338L538.909 528.073H525.339Z" fill="#E0E0E0"/>
<path d="M461.298 529.833L423.486 689.178H415.649L449.959 529.198L461.298 529.833Z" fill="#E0E0E0"/>
<path d="M560.446 366.985C560.446 366.985 601.386 364.639 597.297 412.031C593.208 459.422 590.862 507.318 575.646 523.756C560.43 540.194 407.178 540.732 394.292 527.275C381.405 513.819 418.875 514.405 425.897 514.405C432.918 514.405 476.204 518.494 490.247 481.643C504.29 444.792 500.771 364.639 560.446 366.985Z" fill="#F5F5F5"/>
<path d="M563.069 367.002C563.069 367.002 594.365 373.421 591.449 406.182C588.533 438.944 580.322 496.273 565.122 510.886C549.922 525.5 490.312 528.709 458.072 526.689C420.602 524.343 396.996 517.224 396.996 517.224C396.996 517.224 390.154 521.606 392.223 524.441C394.292 527.275 412.554 538.647 501.048 536.757C589.543 534.867 583.385 521.802 587.066 507.547C590.748 493.292 598.47 417.244 597.362 400.529C596.255 383.814 587.881 369.934 563.069 367.002Z" fill="#E0E0E0"/>
<path d="M537.378 430.749C537.534 431.388 537.867 431.97 538.338 432.429C538.809 432.887 539.4 433.204 540.043 433.342C540.686 433.481 541.355 433.435 541.974 433.211C542.592 432.987 543.135 432.594 543.54 432.076C543.945 431.558 544.196 430.936 544.264 430.282C544.333 429.628 544.215 428.968 543.926 428.377C543.637 427.786 543.187 427.289 542.628 426.942C542.069 426.595 541.424 426.413 540.766 426.416C539.75 426.558 538.829 427.089 538.197 427.898C537.564 428.706 537.271 429.728 537.378 430.749Z" fill="#EBEBEB"/>
<path d="M539.691 411.607C539.041 413.651 538.652 415.769 538.535 417.911C538.52 420.212 539.032 422.486 540.033 424.558C540.623 425.742 541.375 426.839 542.265 427.817C542.846 428.32 543.391 428.865 543.895 429.446C544.163 429.818 544.353 430.241 544.454 430.689C544.555 431.137 544.564 431.601 544.481 432.052C544.006 433.511 543.423 434.932 542.738 436.304C542.369 437.585 542.199 438.915 542.233 440.247C542.289 442.522 542.875 444.753 543.943 446.763C545.035 448.609 546.36 450.307 547.886 451.814C547.886 451.814 547.283 451.602 546.387 450.885C545.093 449.846 543.99 448.589 543.129 447.171C541.88 445.051 541.175 442.656 541.076 440.198C541.005 438.731 541.17 437.262 541.565 435.848C542.196 434.527 542.74 433.167 543.194 431.775C543.504 430.488 542.445 429.56 541.369 428.517C540.399 427.426 539.598 426.196 538.991 424.868C537.974 422.632 537.51 420.185 537.639 417.732C537.728 416.096 538.097 414.487 538.73 412.975C539.252 412.079 539.626 411.574 539.691 411.607Z" fill="#EBEBEB"/>
<path d="M530.422 425.161C530.617 425.161 530.422 426.188 530.894 427.638C531.478 429.51 532.678 431.129 534.299 432.232C535.989 433.293 537.891 433.971 539.871 434.219C541.402 434.447 542.396 434.48 542.412 434.659C542.428 434.838 541.435 435.066 539.789 435.034C537.607 435.03 535.472 434.39 533.647 433.193C532.724 432.581 531.932 431.79 531.319 430.866C530.706 429.943 530.285 428.906 530.08 427.817C529.819 426.123 530.291 425.112 530.422 425.161Z" fill="#EBEBEB"/>
<path d="M631.248 690.595L637.358 690.579L627.697 456.995L621.604 457.32L631.248 690.595Z" fill="#E0E0E0"/>
<path d="M292.21 690.856L298.303 691.214L309.772 457.597L303.68 457.223L292.21 690.856Z" fill="#E0E0E0"/>
<path d="M348.986 692.339L355.079 692.714L366.238 460.758L360.161 460.384L348.986 692.339Z" fill="#E0E0E0"/>
<path d="M669.419 690.579H675.528L665.737 457.206L659.644 457.532L669.419 690.579Z" fill="#E0E0E0"/>
<path d="M681.833 454.47H281.849V466.493H681.833V454.47Z" fill="#E0E0E0"/>
<path d="M312.607 377.574L341.198 453.101H470.649L469.688 449.207L417.344 447.741L393.233 377.542L312.607 377.574Z" fill="#EBEBEB"/>
<path d="M369.969 415.256C370.212 415.914 370.32 416.615 370.288 417.316C370.255 418.016 370.081 418.703 369.777 419.336C369.473 419.968 369.045 420.533 368.518 420.996C367.991 421.46 367.376 421.812 366.71 422.033C365.282 422.242 363.828 421.899 362.644 421.072C361.46 420.246 360.637 418.999 360.341 417.586C360.1 416.929 359.993 416.23 360.028 415.531C360.062 414.832 360.236 414.147 360.54 413.516C360.844 412.886 361.271 412.323 361.796 411.861C362.322 411.398 362.935 411.046 363.599 410.825C365.026 410.607 366.482 410.946 367.668 411.77C368.853 412.595 369.676 413.842 369.969 415.256Z" fill="white"/>
<path d="M697 690.579C697 690.839 541.174 691.035 349.002 691.035C156.83 691.035 0.987488 690.839 0.987488 690.579C0.987488 690.318 156.765 690.139 349.002 690.139C541.239 690.139 697 690.334 697 690.579Z" fill="#263238"/>
<path d="M494.744 135.616H540.343V72.8291H494.744V135.616Z" fill="#EBEBEB"/>
<path d="M533.175 85.4876C533.175 85.5853 529.917 85.6505 525.893 85.6505C521.869 85.6505 518.594 85.6505 518.594 85.4876C518.594 85.3246 521.852 85.3083 525.893 85.3083C529.933 85.3083 533.175 85.3735 533.175 85.4876Z" fill="#263238"/>
<path d="M525.893 93.7147C523.466 93.9536 521.021 93.9536 518.594 93.7147C521.022 93.4975 523.465 93.4975 525.893 93.7147Z" fill="#263238"/>
<path d="M508.347 96.1094C505.924 96.3268 503.487 96.3268 501.065 96.1094C503.486 95.8704 505.926 95.8704 508.347 96.1094Z" fill="#263238"/>
<path d="M512.094 99.6124C508.421 99.8296 504.738 99.8296 501.065 99.6124C504.738 99.3952 508.421 99.3952 512.094 99.6124Z" fill="#263238"/>
<path d="M508.347 105.591C505.924 105.809 503.487 105.809 501.065 105.591C503.486 105.352 505.926 105.352 508.347 105.591Z" fill="#263238"/>
<path d="M512.094 109.094C508.421 109.311 504.738 109.311 501.065 109.094C504.737 108.855 508.421 108.855 512.094 109.094Z" fill="#263238"/>
<path d="M508.347 114.698C505.924 114.915 503.487 114.915 501.065 114.698C503.486 114.459 505.926 114.459 508.347 114.698Z" fill="#263238"/>
<path d="M512.094 118.135C508.421 118.353 504.738 118.353 501.065 118.135C504.738 117.918 508.421 117.918 512.094 118.135Z" fill="#263238"/>
<path d="M535.211 99.8243C535.211 99.922 531.497 99.9872 526.903 99.9872C522.309 99.9872 518.594 99.9872 518.594 99.8243C518.594 99.6614 522.325 99.6614 526.903 99.6614C531.481 99.6614 535.211 99.7266 535.211 99.8243Z" fill="#263238"/>
<path d="M525.176 105.933C523.009 106.146 520.826 106.146 518.659 105.933C520.825 105.699 523.01 105.699 525.176 105.933Z" fill="#263238"/>
<path d="M535.211 112.026C535.211 112.124 531.497 112.205 526.903 112.205C522.309 112.205 518.594 112.205 518.594 112.026C518.594 111.847 522.325 111.863 526.903 111.863C531.481 111.863 535.211 111.945 535.211 112.026Z" fill="#263238"/>
<path d="M535.211 118.135C535.211 118.233 531.497 118.298 526.903 118.298C522.309 118.298 518.594 118.298 518.594 118.135C518.594 117.972 522.325 117.972 526.903 117.972C531.481 117.972 535.211 118.038 535.211 118.135Z" fill="#263238"/>
<path d="M534.348 124.473C534.348 124.571 530.617 124.652 526.039 124.652C521.462 124.652 517.731 124.652 517.731 124.473C517.731 124.294 521.445 124.31 526.039 124.31C530.634 124.31 534.348 124.473 534.348 124.473Z" fill="#263238"/>
<path d="M513.234 91.6132C513.234 91.6132 513.234 91.3036 513.234 90.7334C513.234 90.1632 513.234 89.2346 513.234 88.306C513.234 86.0253 513.234 83.1254 513.153 79.7205L513.3 79.8672H501.407C501.407 79.8672 501.716 79.5413 501.57 79.7042V85.9764C501.57 87.9639 501.57 89.8374 501.57 91.5806L501.423 91.434L509.992 91.5154H512.436H513.316C513.044 91.5296 512.773 91.5296 512.501 91.5154H510.09H501.423H501.26V91.3688C501.26 89.6256 501.26 87.7521 501.26 85.7646V79.7368L501.439 79.5576H513.332H513.479V79.7042C513.479 83.1417 513.479 86.0741 513.479 88.3712C513.479 89.2998 513.479 90.0818 513.479 90.7823C513.413 91.0636 513.331 91.341 513.234 91.6132Z" fill="#263238"/>
<path d="M513.234 85.0644C513.016 84.9665 512.809 84.8464 512.615 84.706L510.986 83.6145H511.149L507.484 87.166H507.402L507.304 87.2638H507.19L504.958 85.6346H505.154L502.433 87.8991C502.096 88.2048 501.731 88.4776 501.342 88.7137C501.633 88.3598 501.96 88.0376 502.319 87.7525L504.958 85.374L505.04 85.2925H505.154L507.386 86.9216H507.174H507.255C508.542 85.6998 509.748 84.592 510.986 83.4353H511.084L512.632 84.6246C512.853 84.7411 513.056 84.8893 513.234 85.0644Z" fill="#263238"/>
<path d="M508.608 82.5062C508.527 82.0896 508.302 81.7147 507.972 81.4472C507.796 81.3186 507.59 81.2363 507.374 81.2078C507.158 81.1794 506.938 81.2057 506.734 81.2843C506.483 81.3729 506.265 81.5372 506.112 81.7546C505.958 81.972 505.875 82.2317 505.875 82.498C505.875 82.7643 505.958 83.0241 506.112 83.2414C506.265 83.4588 506.483 83.6231 506.734 83.7117C506.938 83.7904 507.158 83.8167 507.374 83.7882C507.59 83.7598 507.796 83.6774 507.972 83.5488C508.296 83.2837 508.521 82.9159 508.608 82.5062C508.608 82.5062 508.803 83.1252 508.119 83.7443C507.909 83.9064 507.663 84.0149 507.402 84.0603C507.141 84.1058 506.872 84.0868 506.62 84.005C506.313 83.8905 506.048 83.6862 505.86 83.4189C505.671 83.1515 505.567 82.8335 505.561 82.5062C505.576 82.2159 505.668 81.9349 505.828 81.6922C505.988 81.4496 506.21 81.2541 506.471 81.1262C506.732 80.9982 507.022 80.9423 507.312 80.9644C507.602 80.9865 507.88 81.0857 508.119 81.2517C508.803 81.8708 508.64 82.5387 508.608 82.5062Z" fill="#263238"/>
<path d="M148.978 135.616H194.577V72.8291H148.978V135.616Z" fill="#EBEBEB"/>
<path d="M187.409 85.4876C187.409 85.5853 184.15 85.6505 180.126 85.6505C176.103 85.6505 172.828 85.6505 172.828 85.4876C172.828 85.3246 176.086 85.3083 180.126 85.3083C184.167 85.3083 187.409 85.3735 187.409 85.4876Z" fill="#263238"/>
<path d="M180.126 93.7147C177.699 93.9536 175.255 93.9536 172.828 93.7147C175.256 93.4975 177.698 93.4975 180.126 93.7147Z" fill="#263238"/>
<path d="M162.581 96.1094C160.158 96.3268 157.721 96.3268 155.299 96.1094C157.72 95.8704 160.159 95.8704 162.581 96.1094Z" fill="#263238"/>
<path d="M166.328 99.6124C164.497 99.7799 162.658 99.8343 160.821 99.7753C158.979 99.8345 157.134 99.7801 155.299 99.6124C157.134 99.4446 158.979 99.3902 160.821 99.4494C162.658 99.3904 164.497 99.4448 166.328 99.6124Z" fill="#263238"/>
<path d="M162.581 105.591C160.158 105.809 157.721 105.809 155.299 105.591C157.72 105.352 160.159 105.352 162.581 105.591Z" fill="#263238"/>
<path d="M166.328 109.093C164.497 109.261 162.658 109.315 160.821 109.256C158.979 109.316 157.134 109.261 155.299 109.093C157.134 108.915 158.978 108.855 160.821 108.914C162.659 108.855 164.498 108.915 166.328 109.093Z" fill="#263238"/>
<path d="M162.581 114.698C160.158 114.915 157.721 114.915 155.299 114.698C157.72 114.459 160.159 114.459 162.581 114.698Z" fill="#263238"/>
<path d="M166.328 118.135C164.497 118.303 162.658 118.357 160.821 118.298C158.979 118.357 157.134 118.303 155.299 118.135C157.118 117.964 158.946 117.904 160.772 117.956C162.626 117.9 164.482 117.96 166.328 118.135Z" fill="#263238"/>
<path d="M189.445 99.8243C189.445 99.922 185.731 99.9872 181.137 99.9872C176.542 99.9872 172.828 99.9872 172.828 99.8243C172.828 99.6614 176.559 99.6614 181.137 99.6614C185.714 99.6614 189.445 99.7266 189.445 99.8243Z" fill="#263238"/>
<path d="M179.426 105.933C177.259 106.145 175.076 106.145 172.909 105.933C175.075 105.7 177.26 105.7 179.426 105.933Z" fill="#263238"/>
<path d="M189.445 112.026C189.445 112.124 185.731 112.205 181.137 112.205C176.542 112.205 172.828 112.205 172.828 112.026C172.828 111.847 176.559 111.863 181.137 111.863C185.714 111.863 189.445 111.945 189.445 112.026Z" fill="#263238"/>
<path d="M189.445 118.135C189.445 118.233 185.731 118.298 181.137 118.298C176.542 118.298 172.828 118.298 172.828 118.135C172.828 117.972 176.559 117.972 181.137 117.972C185.714 117.972 189.445 118.038 189.445 118.135Z" fill="#263238"/>
<path d="M188.582 124.473C188.582 124.571 184.867 124.652 180.273 124.652C175.679 124.652 171.965 124.652 171.965 124.473C171.965 124.294 175.679 124.31 180.273 124.31C184.867 124.31 188.582 124.473 188.582 124.473Z" fill="#263238"/>
<path d="M167.468 91.6131C167.468 91.6131 167.468 91.3036 167.468 90.7334C167.468 90.1632 167.468 89.2346 167.468 88.306C167.468 86.0252 167.468 83.1254 167.468 79.7205L167.615 79.8671H155.722L155.885 79.7042V85.9764C155.885 87.9639 155.885 89.8374 155.885 91.5805L155.738 91.4339L164.324 91.5154H166.751H167.631C167.36 91.5303 167.088 91.5303 166.816 91.5154H164.405H155.738H155.592V91.3688C155.592 89.6256 155.592 87.7521 155.592 85.7646C155.592 84.7545 155.592 83.7282 155.592 82.6855V79.4273L155.771 79.248H167.664H167.827V79.3947C167.827 82.8321 167.827 85.7646 167.827 88.0616C167.827 88.9902 167.827 89.7722 167.827 90.4727C167.827 91.1733 167.468 91.6131 167.468 91.6131Z" fill="#263238"/>
<path d="M167.468 85.0644C167.252 84.9621 167.045 84.8422 166.849 84.706L165.22 83.6145H165.367L161.717 87.166H161.62L161.522 87.2638H161.408L159.176 85.6346H159.371L156.651 87.8991C156.314 88.2048 155.948 88.4776 155.559 88.7137C155.856 88.3654 156.183 88.0437 156.537 87.7525L159.143 85.374L159.225 85.2925H159.339L161.571 86.9216H161.359H161.44C162.727 85.6998 163.933 84.592 165.171 83.4353H165.253H165.334L166.882 84.6246C167.097 84.7425 167.295 84.8906 167.468 85.0644Z" fill="#263238"/>
<path d="M162.841 82.5062C162.76 82.0896 162.536 81.7147 162.206 81.4472C162.03 81.3186 161.824 81.2363 161.608 81.2078C161.391 81.1794 161.171 81.2057 160.968 81.2843C160.717 81.3729 160.499 81.5372 160.346 81.7546C160.192 81.972 160.109 82.2317 160.109 82.498C160.109 82.7643 160.192 83.0241 160.346 83.2414C160.499 83.4588 160.717 83.6231 160.968 83.7117C161.171 83.7904 161.391 83.8167 161.608 83.7882C161.824 83.7598 162.03 83.6774 162.206 83.5488C162.53 83.2837 162.754 82.9159 162.841 82.5062C162.841 82.5062 163.053 83.1252 162.353 83.7443C162.143 83.9064 161.897 84.0149 161.636 84.0603C161.374 84.1058 161.106 84.0868 160.854 84.005C160.547 83.8905 160.282 83.6862 160.093 83.4189C159.904 83.1515 159.8 82.8335 159.795 82.5062C159.81 82.2159 159.902 81.9349 160.062 81.6922C160.222 81.4496 160.444 81.2541 160.705 81.1262C160.966 80.9982 161.256 80.9423 161.546 80.9644C161.836 80.9865 162.114 81.0857 162.353 81.2517C163.053 81.8708 162.874 82.5387 162.841 82.5062Z" fill="#263238"/>
<path d="M305.276 8.26685H300.682V12.861H305.276V8.26685Z" fill="#FDC800"/>
<path d="M305.276 76.0388H300.682V80.633H305.276V76.0388Z" fill="#FDC800"/>
<path d="M399.489 76.0388H394.894V80.633H399.489V76.0388Z" fill="#FDC800"/>
<path d="M305.276 142.703H300.682V147.297H305.276V142.703Z" fill="#FDC800"/>
<path d="M351.413 8.26685H346.819V12.861H351.413V8.26685Z" fill="#FDC800"/>
<path d="M351.413 143.811H346.819V148.405H351.413V143.811Z" fill="#FDC800"/>
<path d="M399.489 8.26685H394.894V12.861H399.489V8.26685Z" fill="#FDC800"/>
<path d="M399.489 143.811H394.894V148.405H399.489V143.811Z" fill="#FDC800"/>
<path d="M397.501 145.277C397.501 145.277 397.501 145.048 397.501 144.625V142.703C397.501 140.992 397.501 138.499 397.501 135.274C397.501 128.757 397.501 119.341 397.387 107.383C397.387 83.5163 397.273 49.6793 397.192 9.73308L397.583 10.1241H303.386L303.81 9.7005C303.81 60.5945 303.81 107.611 303.728 145.244L303.386 144.918L371.81 145.081L390.789 145.179H395.791H397.517H395.888H391.001L372.087 145.26L303.386 145.439H303.044V145.081C303.044 107.448 303.044 60.3664 302.963 9.53759V9.11401H303.386H397.583H397.974V9.50501C397.892 49.549 397.827 83.4674 397.778 107.416C397.778 119.325 397.697 128.741 397.68 135.209C397.68 138.467 397.68 140.862 397.68 142.556V144.429C397.517 145.081 397.501 145.277 397.501 145.277Z" fill="#FDC800"/>
<path d="M393.624 15.9561H306.987V140.503H393.624V15.9561Z" fill="#E0E0E0"/>
<path d="M360.438 53.8662C355.469 54.4309 350.452 54.4309 345.483 53.8662C350.452 53.3015 355.469 53.3015 360.438 53.8662Z" fill="#263238"/>
<path d="M337.272 55.7233C333.786 56.1421 330.273 56.2837 326.764 56.1469C323.256 56.2837 319.742 56.1421 316.256 55.7233C319.742 55.3045 323.256 55.1629 326.764 55.2997C330.273 55.1629 333.786 55.3045 337.272 55.7233Z" fill="#263238"/>
<path d="M337.272 61.23C333.786 61.6488 330.273 61.7904 326.764 61.6536C323.256 61.7904 319.742 61.6488 316.256 61.23C319.742 60.8015 323.256 60.6598 326.764 60.8064C330.273 60.6598 333.787 60.8015 337.272 61.23Z" fill="#263238"/>
<path d="M337.272 66.7199C333.787 67.1484 330.273 67.29 326.764 67.1434C323.256 67.29 319.742 67.1484 316.256 66.7199C319.742 66.3011 323.256 66.1595 326.764 66.2963C330.273 66.1595 333.786 66.3011 337.272 66.7199Z" fill="#263238"/>
<path d="M337.272 72.2267C333.786 72.6455 330.273 72.7871 326.764 72.6503C323.256 72.7871 319.742 72.6455 316.256 72.2267C319.742 71.8079 323.256 71.6663 326.764 71.8031C330.273 71.6663 333.786 71.8079 337.272 72.2267Z" fill="#263238"/>
<path d="M337.272 77.7329C333.786 78.1517 330.273 78.2933 326.764 78.1565C323.256 78.2933 319.742 78.1517 316.256 77.7329C319.742 77.3044 323.256 77.1628 326.764 77.3094C330.273 77.1628 333.787 77.3044 337.272 77.7329Z" fill="#263238"/>
<path d="M337.272 87.6381C333.788 88.0774 330.273 88.2245 326.764 88.078C323.256 88.2245 319.741 88.0774 316.256 87.6381C319.742 87.2193 323.256 87.0777 326.764 87.2145C330.273 87.0777 333.786 87.2193 337.272 87.6381Z" fill="#263238"/>
<path d="M337.272 93.1447C333.787 93.5732 330.273 93.7148 326.764 93.5682C323.256 93.7148 319.742 93.5732 316.256 93.1447C319.742 92.7259 323.256 92.5843 326.764 92.7211C330.273 92.5843 333.786 92.7259 337.272 93.1447Z" fill="#263238"/>
<path d="M337.272 98.6508C333.786 99.0695 330.273 99.2112 326.764 99.0744C323.256 99.2112 319.742 99.0695 316.256 98.6508C319.742 98.232 323.256 98.0904 326.764 98.2272C330.273 98.0904 333.786 98.232 337.272 98.6508Z" fill="#263238"/>
<path d="M327.937 104.158C324.064 104.722 320.13 104.722 316.256 104.158C320.13 103.593 324.064 103.593 327.937 104.158Z" fill="#263238"/>
<path d="M379.239 62.7944C379.239 63.0225 371.679 63.218 362.361 63.218C353.042 63.218 345.483 63.0225 345.483 62.7944C345.483 62.5663 353.026 62.3708 362.361 62.3708C371.696 62.3708 379.239 62.5663 379.239 62.7944Z" fill="#263238"/>
<path d="M379.711 68.1704C379.711 68.3985 372.152 68.5939 362.833 68.5939C353.515 68.5939 345.955 68.3985 345.955 68.1704C351.554 67.7319 357.171 67.5851 362.784 67.7305C368.43 67.5817 374.08 67.7285 379.711 68.1704Z" fill="#263238"/>
<path d="M360.438 80.4865C355.469 81.0512 350.452 81.0512 345.483 80.4865C350.452 79.9218 355.469 79.9218 360.438 80.4865Z" fill="#263238"/>
<path d="M379.239 89.3484C373.624 89.7777 367.99 89.9191 362.361 89.7719C356.731 89.9197 351.098 89.7783 345.483 89.3484C345.483 89.1203 353.026 88.9248 362.361 88.9248C371.696 88.9248 379.239 89.1203 379.239 89.3484Z" fill="#263238"/>
<path d="M379.711 94.7245C379.711 94.9526 372.152 95.1481 362.833 95.1481C353.515 95.1481 345.955 94.9526 345.955 94.7245C351.57 94.2951 357.204 94.1538 362.833 94.3009C368.463 94.1538 374.096 94.2951 379.711 94.7245Z" fill="#263238"/>
<path d="M360.438 108.019C355.469 108.583 350.452 108.583 345.483 108.019C350.452 107.454 355.469 107.454 360.438 108.019Z" fill="#263238"/>
<path d="M379.239 116.946C373.624 117.376 367.99 117.517 362.361 117.37C356.731 117.518 351.098 117.376 345.483 116.946C345.483 116.718 353.026 116.523 362.361 116.523C371.696 116.523 379.239 116.718 379.239 116.946Z" fill="#263238"/>
<path d="M379.711 122.322C379.711 122.55 372.152 122.746 362.833 122.746C353.515 122.746 345.955 122.55 345.955 122.322C351.57 121.893 357.204 121.752 362.833 121.899C368.463 121.752 374.096 121.893 379.711 122.322Z" fill="#263238"/>
<path d="M337.908 47.5615C337.868 47.0192 337.868 46.4747 337.908 45.9324C337.908 44.7594 337.908 43.2443 337.81 41.3545C337.81 37.3632 337.696 31.873 337.614 25.3239L337.989 25.6986H315.719L316.126 25.2913V37.021C316.126 40.7517 316.126 44.2707 316.126 47.5289L315.751 47.1542L331.782 47.3497L336.36 47.4475C336.904 47.4353 337.449 47.4625 337.989 47.5289C337.479 47.5552 336.968 47.5552 336.458 47.5289L331.831 47.7407L315.54 47.9199H315.181V47.5615C315.181 44.3032 315.181 40.7843 315.181 37.0536V31.2865C315.181 30.309 315.181 29.3153 315.181 28.3052V25.3239L315.621 24.884H337.891H338.347V25.2424C338.347 31.8893 338.217 37.4609 338.168 41.5337C338.168 43.3746 338.087 44.8734 338.07 46.0138C338.043 46.5322 337.989 47.0488 337.908 47.5615Z" fill="#263238"/>
<path d="M383.963 34.7402C383.963 34.9846 375.964 35.1638 366.043 35.1638C356.121 35.1638 348.122 34.9846 348.122 34.7402C348.122 34.4959 356.121 34.3167 366.043 34.3167C375.964 34.3167 383.963 34.5121 383.963 34.7402Z" fill="#263238"/>
<path d="M366.434 39.8886C363.477 40.3065 360.489 40.4483 357.506 40.3121C354.523 40.4491 351.535 40.3073 348.578 39.8886C351.534 39.46 354.523 39.3181 357.506 39.465C360.489 39.3191 363.478 39.4609 366.434 39.8886Z" fill="#263238"/>
<path d="M353.743 30.1949C353.743 30.1949 353.205 30.6837 352.114 30.9117C351.396 31.056 350.651 30.922 350.028 30.5371C349.645 30.2944 349.321 29.9699 349.079 29.5867C348.836 29.2036 348.682 28.7714 348.627 28.3214C348.59 27.8725 348.645 27.4207 348.791 26.9945C348.937 26.5683 349.17 26.1769 349.474 25.8452C349.971 25.3137 350.641 24.9783 351.364 24.9003C352.602 24.7862 353.221 25.3075 353.156 25.389C353.091 25.4705 352.456 25.2587 351.527 25.4868C350.973 25.6212 350.476 25.9295 350.11 26.3665C349.892 26.6208 349.728 26.9164 349.628 27.2354C349.527 27.5545 349.491 27.8906 349.523 28.2237C349.565 28.55 349.674 28.8639 349.846 29.1447C350.017 29.4255 350.246 29.6668 350.517 29.8528C350.994 30.1819 351.569 30.3372 352.146 30.2927C353.01 30.2601 353.71 30.0646 353.743 30.1949Z" fill="#263238"/>
<path d="M359.836 24.6394C359.355 26.5889 358.598 28.4596 357.587 30.1947L357.229 30.9278L356.838 30.2436C355.701 28.585 354.802 26.7754 354.166 24.8675C355.521 26.3282 356.662 27.9737 357.555 29.7549H356.805C357.585 27.9231 358.604 26.2029 359.836 24.6394Z" fill="#263238"/>
<path d="M337.191 47.5616C336.544 46.6337 335.789 45.786 334.943 45.0365C332.867 43.2703 330.254 42.2596 327.53 42.1692C324.809 42.0989 322.167 43.0924 320.166 44.9387C319.361 45.7369 318.62 46.5976 317.951 47.5128C318.04 47.2131 318.171 46.9278 318.342 46.6656C318.798 45.9365 319.346 45.2686 319.971 44.6781C320.972 43.6814 322.166 42.9 323.48 42.3817C324.794 41.8634 326.2 41.6192 327.611 41.6642C330.448 41.7325 333.161 42.8397 335.236 44.7758C335.861 45.3487 336.408 46.0004 336.865 46.7145C337.032 46.9707 337.143 47.2594 337.191 47.5616Z" fill="#263238"/>
<path d="M324.891 29.3317C325.273 29.0357 325.73 28.8498 326.21 28.7941C326.866 28.7023 327.533 28.7445 328.171 28.9181C328.81 29.0917 329.406 29.3932 329.925 29.8042C330.676 30.4375 331.274 31.2324 331.675 32.1295C332.075 33.0267 332.268 34.0028 332.238 34.9848C332.264 36.1511 332.013 37.3068 331.505 38.3571C331.217 38.9366 330.805 39.4457 330.298 39.8483C329.791 40.2509 329.202 40.5371 328.573 40.6868C327.344 41.0266 326.034 40.9228 324.874 40.3935C323.836 39.8988 322.964 39.1119 322.366 38.129C321.809 37.224 321.526 36.1773 321.551 35.1152C321.547 34.21 321.678 33.3093 321.942 32.4434C322.113 31.8035 322.411 31.205 322.82 30.6841C323.229 30.1632 323.74 29.7308 324.321 29.4132C324.74 29.1862 325.199 29.0423 325.673 28.9896C325.673 28.9896 325.184 29.1362 324.418 29.5924C323.347 30.2562 322.58 31.3157 322.284 32.5411C322.008 33.4192 321.908 34.343 321.989 35.2599C322.07 36.1768 322.331 37.0687 322.757 37.8847C323.343 38.8498 324.228 39.5977 325.277 40.0151C326.327 40.4325 327.483 40.4967 328.573 40.198C329.111 40.0494 329.612 39.7881 330.041 39.4314C330.471 39.0747 330.82 38.6308 331.065 38.129C331.534 37.1475 331.773 36.0724 331.766 34.9848C331.799 34.0685 331.631 33.1559 331.274 32.3115C330.916 31.4671 330.378 30.7113 329.697 30.0974C328.724 29.3007 327.481 28.9097 326.227 29.0059C325.772 29.0693 325.324 29.1784 324.891 29.3317Z" fill="#263238"/>
<path d="M329.469 33.4531C329.539 33.4613 329.604 33.4963 329.649 33.5509C329.695 33.6055 329.718 33.6755 329.713 33.7464C329.713 33.8188 329.687 33.8889 329.639 33.943C329.591 33.9971 329.524 34.0316 329.452 34.0396C329.417 34.0377 329.382 34.0284 329.35 34.0123C329.318 33.9962 329.289 33.9737 329.266 33.9462C329.243 33.9187 329.226 33.8867 329.216 33.8524C329.206 33.818 329.203 33.7819 329.208 33.7464C329.206 33.71 329.211 33.6735 329.223 33.6391C329.235 33.6046 329.253 33.5729 329.277 33.5456C329.302 33.5184 329.331 33.4962 329.364 33.4803C329.397 33.4644 329.432 33.4552 329.469 33.4531Z" fill="#263238"/>
<path d="M324.5 34.1536C324.536 34.1555 324.571 34.1648 324.603 34.1809C324.635 34.197 324.663 34.2194 324.686 34.247C324.709 34.2745 324.726 34.3064 324.736 34.3408C324.746 34.3752 324.749 34.4113 324.744 34.4468C324.744 34.626 324.63 34.7563 324.484 34.74C324.406 34.74 324.331 34.7092 324.276 34.6542C324.221 34.5992 324.19 34.5246 324.19 34.4468C324.19 34.369 324.221 34.2944 324.276 34.2395C324.331 34.1845 324.406 34.1536 324.484 34.1536H324.5Z" fill="#263238"/>
<path d="M321.861 32.7365C322.291 32.624 322.737 32.5854 323.18 32.6224C324.217 32.6351 325.251 32.5202 326.259 32.2803C327.253 32.085 328.153 31.5632 328.817 30.7978C329.273 30.1787 329.371 29.6574 329.452 29.6737C329.534 29.69 329.55 30.2276 329.127 30.9933C328.476 31.9142 327.496 32.5499 326.39 32.7691C325.324 33.0253 324.222 33.0969 323.131 32.9808C322.695 32.9908 322.262 32.9075 321.861 32.7365Z" fill="#263238"/>
<path d="M321.877 36.7282C321.877 36.7282 321.698 36.8749 321.372 36.8423C321.149 36.8098 320.942 36.7095 320.779 36.555C320.616 36.4004 320.504 36.1992 320.46 35.9788C320.433 35.8473 320.437 35.7114 320.47 35.5815C320.504 35.4516 320.567 35.3312 320.655 35.2295C320.73 35.1499 320.821 35.0871 320.922 35.045C321.023 35.0029 321.132 34.9825 321.242 34.9851C321.616 34.9851 321.73 35.262 321.665 35.2783C321.6 35.2946 321.47 35.2783 321.274 35.2783C321.161 35.3124 321.065 35.3893 321.007 35.4926C320.95 35.596 320.934 35.7178 320.965 35.8322C321.079 36.5002 321.91 36.5816 321.877 36.7282Z" fill="#263238"/>
<path d="M332.206 36.223C332.206 36.109 332.662 35.8157 332.564 35.3433C332.466 34.8708 331.831 34.8708 331.831 34.7242C331.831 34.5776 331.945 34.5287 332.222 34.545C332.41 34.5604 332.589 34.6348 332.732 34.7577C332.875 34.8806 332.976 35.0456 333.02 35.2292C333.062 35.4143 333.046 35.6079 332.973 35.7831C332.9 35.9583 332.774 36.1064 332.613 36.2067C332.401 36.337 332.206 36.2882 332.206 36.223Z" fill="#263238"/>
<path d="M329.078 36.8582C329.078 36.8582 329.078 37.1515 328.817 37.4447C328.645 37.6476 328.434 37.813 328.196 37.9307C327.957 38.0484 327.698 38.1159 327.432 38.129C327.165 38.1508 326.896 38.1188 326.641 38.0349C326.387 37.9509 326.152 37.8167 325.95 37.6402C325.656 37.3796 325.575 37.1352 325.624 37.1026C325.673 37.07 326.373 37.6891 327.4 37.6239C328.426 37.5588 328.964 36.7768 329.078 36.8582Z" fill="#263238"/>
<path d="M327.416 36.4996C327.416 36.4019 327.954 36.1575 328.116 35.4733L328.361 35.7828C328.208 35.8021 328.053 35.7873 327.906 35.7394C327.76 35.6915 327.626 35.6117 327.514 35.5058C327.29 35.3057 327.126 35.0476 327.04 34.7601C326.954 34.4726 326.948 34.1669 327.025 33.8767C327.025 33.4857 327.204 33.2739 327.269 33.2739C327.334 33.2739 327.351 33.5346 327.383 33.893C327.377 34.3237 327.541 34.7396 327.84 35.0497C327.969 35.1682 328.136 35.2374 328.312 35.2452H328.687L328.573 35.5547C328.214 36.4996 327.4 36.6136 327.416 36.4996Z" fill="#263238"/>
<path d="M326.21 41.9737C326.064 41.9737 325.933 41.6804 325.901 41.2895C325.868 40.8985 325.901 40.5889 326.113 40.5726C326.324 40.5563 326.39 40.8659 326.422 41.2569C326.455 41.6479 326.341 41.9574 326.21 41.9737Z" fill="#263238"/>
<path d="M328.719 41.7782C328.589 41.7782 328.442 41.485 328.426 41.094C328.41 40.703 328.426 40.3772 328.638 40.3772C328.85 40.3772 328.915 40.6704 328.931 41.0614C328.947 41.4524 328.866 41.762 328.719 41.7782Z" fill="#263238"/>
<path d="M474.754 55.4954H419.266V135.257H474.754V55.4954Z" fill="#EBEBEB"/>
<path d="M453.364 79.9489C450.18 80.2965 446.968 80.2965 443.785 79.9489C446.968 79.6013 450.18 79.6013 453.364 79.9489Z" fill="#263238"/>
<path d="M438.164 81.9524C433.685 82.2999 429.186 82.2999 424.708 81.9524C429.187 81.6265 433.684 81.6265 438.164 81.9524Z" fill="#263238"/>
<path d="M438.164 85.4875C433.684 85.8133 429.187 85.8133 424.708 85.4875C429.186 85.1399 433.685 85.1399 438.164 85.4875Z" fill="#263238"/>
<path d="M438.164 89.0068C433.685 89.3543 429.186 89.3543 424.708 89.0068C429.186 88.6592 433.685 88.6592 438.164 89.0068Z" fill="#263238"/>
<path d="M432.185 92.5254C430.96 92.7861 429.704 92.8739 428.454 92.786C427.199 92.8733 425.938 92.7855 424.708 92.5254C425.941 92.2854 427.2 92.2033 428.454 92.281C429.703 92.2029 430.957 92.2851 432.185 92.5254Z" fill="#263238"/>
<path d="M465.419 85.6667C465.419 85.8133 460.532 85.9273 454.618 85.9273C448.705 85.9273 443.801 85.8133 443.801 85.6667C443.801 85.5201 448.688 85.406 454.618 85.406C460.548 85.406 465.419 85.5201 465.419 85.6667Z" fill="#263238"/>
<path d="M465.713 89.1042C465.713 89.2508 460.825 89.3648 454.912 89.3648C448.998 89.3648 444.094 89.2508 444.094 89.1042C444.094 88.9576 448.981 88.8435 454.912 88.8435C460.842 88.8435 465.713 88.9576 465.713 89.1042Z" fill="#263238"/>
<path d="M453.364 96.9565C450.18 97.304 446.968 97.304 443.785 96.9565C446.968 96.6089 450.18 96.6089 453.364 96.9565Z" fill="#263238"/>
<path d="M465.419 102.675C465.419 102.822 460.532 102.936 454.618 102.936C448.705 102.936 443.801 102.822 443.801 102.675C443.801 102.528 448.688 102.431 454.618 102.431C460.548 102.431 465.419 102.545 465.419 102.675Z" fill="#263238"/>
<path d="M465.713 106.112C465.713 106.259 460.825 106.373 454.912 106.373C448.998 106.373 444.094 106.259 444.094 106.112C444.094 105.966 448.981 105.868 454.912 105.868C460.842 105.868 465.713 105.982 465.713 106.112Z" fill="#263238"/>
<path d="M453.364 114.698C450.18 115.046 446.968 115.046 443.785 114.698C446.968 114.351 450.18 114.351 453.364 114.698Z" fill="#263238"/>
<path d="M465.419 120.351C465.419 120.497 460.532 120.611 454.618 120.611C448.705 120.611 443.801 120.497 443.801 120.351C443.801 120.204 448.688 120.09 454.618 120.09C460.548 120.09 465.419 120.204 465.419 120.351Z" fill="#263238"/>
<path d="M465.713 123.788C465.713 123.935 460.825 124.049 454.912 124.049C448.998 124.049 444.094 123.935 444.094 123.788C444.094 123.642 448.981 123.528 454.912 123.528C460.842 123.528 465.713 123.642 465.713 123.788Z" fill="#263238"/>
<path d="M468.384 71.0046C468.384 71.1349 463.269 71.2489 456.981 71.2489C450.692 71.2489 445.577 71.1349 445.577 71.0046C445.577 70.8742 450.692 70.7439 456.981 70.7439C463.269 70.7439 468.384 70.8579 468.384 71.0046Z" fill="#263238"/>
<path d="M457.274 74.2953C453.479 74.6193 449.664 74.6193 445.87 74.2953C449.663 73.9497 453.48 73.9497 457.274 74.2953Z" fill="#263238"/>
<path d="M449.128 68.0885C449.128 68.0885 448.77 68.3818 448.037 68.5447C447.582 68.6244 447.113 68.5377 446.717 68.3003C446.473 68.1445 446.266 67.9367 446.111 67.6917C445.956 67.4467 445.857 67.1706 445.821 66.883C445.773 66.3744 445.919 65.8664 446.23 65.4613C446.542 65.0562 446.995 64.7842 447.499 64.7C448.281 64.7 448.688 64.9606 448.639 65.0095C448.591 65.0584 448.2 64.9117 447.564 65.0095C447.164 65.0886 446.808 65.3149 446.567 65.6437C446.326 65.9725 446.216 66.3798 446.261 66.7852C446.293 66.9987 446.367 67.2037 446.479 67.3883C446.591 67.5728 446.738 67.7333 446.913 67.8605C447.217 68.0574 447.576 68.1542 447.939 68.1374C448.623 68.1374 449.128 68.0071 449.128 68.0885Z" fill="#263238"/>
<path d="M452.989 64.5371C452.649 65.7716 452.156 66.9591 451.523 68.0723L451.295 68.5122L451.067 68.1049C450.344 67.0394 449.763 65.8838 449.34 64.6674C450.206 65.6509 450.935 66.7469 451.507 67.9257H451.051C451.542 66.7143 452.194 65.5745 452.989 64.5371Z" fill="#263238"/>
<path d="M439.353 75.9084C439.334 75.5503 439.334 75.1913 439.353 74.8332C439.353 74.0349 439.353 73.0574 439.353 71.917C439.353 69.2615 439.353 65.7589 439.239 61.6372L439.451 61.8653H425.196C425.196 61.8653 425.669 61.3766 425.441 61.6046V69.1149C425.441 71.4934 425.441 73.7579 425.441 75.8432L425.229 75.6152L435.492 75.7292H438.425H439.484C439.158 75.7517 438.832 75.7517 438.506 75.7292H435.639L425.229 75.8269H425.001V75.5989C425.001 73.5136 425.001 71.2491 425.001 68.8706C425.001 67.665 425.001 66.4432 425.001 65.1724V61.6698C424.773 61.8979 425.31 61.3603 425.261 61.4254H439.516H439.744V61.6372C439.744 65.8241 439.663 69.3593 439.63 72.0474C439.63 73.1877 439.63 74.1326 439.63 74.9309C439.562 75.2629 439.469 75.5896 439.353 75.9084Z" fill="#263238"/>
<path d="M430.833 64.8464C431.084 64.6654 431.374 64.5479 431.68 64.5043C432.526 64.3968 433.379 64.6249 434.059 65.1396C434.531 65.5394 434.909 66.0389 435.166 66.6023C435.422 67.1657 435.55 67.779 435.541 68.3979C435.571 69.1415 435.414 69.8808 435.085 70.5483C434.902 70.9145 434.643 71.2375 434.326 71.496C434.009 71.7544 433.64 71.9423 433.244 72.0471C432.485 72.2434 431.683 72.1911 430.956 71.8979C430.229 71.6046 429.615 71.086 429.204 70.418C428.856 69.8326 428.68 69.1603 428.699 68.4793C428.707 67.9278 428.79 67.3799 428.943 66.8502C429.054 66.44 429.246 66.0566 429.509 65.7233C429.773 65.39 430.101 65.1138 430.475 64.9116C430.742 64.7655 431.035 64.6715 431.338 64.6346C431.338 64.6346 431.029 64.7486 430.54 65.0256C429.856 65.4542 429.365 66.1318 429.171 66.9154C428.995 67.478 428.932 68.0697 428.985 68.6568C429.038 69.2439 429.207 69.8147 429.481 70.3365C429.842 70.9543 430.397 71.4358 431.06 71.7067C431.722 71.9776 432.456 72.0228 433.146 71.8354C433.806 71.5999 434.368 71.1522 434.746 70.5625C435.123 69.9728 435.294 69.2745 435.232 68.5771C435.258 67.9881 435.153 67.4006 434.925 66.857C434.696 66.3133 434.351 65.827 433.912 65.4329C433.294 64.9174 432.498 64.6657 431.696 64.7323C431.406 64.7476 431.117 64.7858 430.833 64.8464Z" fill="#263238"/>
<path d="M435.346 69.3102C435.346 69.3102 435.834 69.0658 435.818 68.5771C435.802 68.0883 435.199 68.0069 435.199 67.9417C435.199 67.8765 435.329 67.8114 435.558 67.9417C435.711 67.9797 435.848 68.0639 435.951 68.183C436.055 68.3021 436.119 68.4501 436.135 68.607C436.151 68.7638 436.118 68.9218 436.041 69.0593C435.964 69.1968 435.846 69.3072 435.704 69.3753C435.492 69.4079 435.329 69.359 435.346 69.3102Z" fill="#263238"/>
<path d="M428.846 68.512C428.846 68.512 428.406 68.8541 428.536 69.3265C428.666 69.799 429.253 69.7501 429.269 69.8153C429.285 69.8804 429.171 69.9619 428.927 69.9619C428.769 69.9577 428.616 69.9057 428.488 69.8126C428.36 69.7195 428.263 69.5898 428.21 69.4406C428.166 69.2854 428.168 69.1205 428.217 68.9668C428.267 68.813 428.361 68.6774 428.487 68.5771C428.683 68.4468 428.846 68.4631 428.846 68.512Z" fill="#263238"/>
<path d="M433.765 69.5059C433.863 69.5059 433.521 70.402 432.478 70.5486C432.189 70.6103 431.887 70.5752 431.619 70.4487C431.351 70.3221 431.132 70.1111 430.996 69.848C431.445 70.0782 431.941 70.2009 432.446 70.2065C433.277 70.1087 433.684 69.4408 433.765 69.5059Z" fill="#263238"/>
<path d="M434.466 66.1175C434.466 66.1175 434.238 66.3618 433.733 66.5573C433.414 66.6515 433.074 66.6515 432.755 66.5573C432.541 66.508 432.345 66.3993 432.189 66.2437C432.034 66.0882 431.925 65.892 431.876 65.6776L432.169 65.7754C431.645 66.2863 430.959 66.5976 430.23 66.6551C429.676 66.6551 429.351 66.6551 429.367 66.5411C430.309 66.5032 431.211 66.1472 431.925 65.531L432.169 65.2866V65.6125C432.208 65.763 432.286 65.9007 432.394 66.0121C432.503 66.1235 432.639 66.2048 432.788 66.2478C433.061 66.3129 433.346 66.3129 433.619 66.2478C434.091 66.1989 434.466 66.0686 434.466 66.1175Z" fill="#263238"/>
<path d="M437.464 75.9085C437.083 75.4394 436.669 74.9984 436.225 74.5889C435.085 73.6999 433.661 73.2543 432.218 73.3345C430.77 73.34 429.366 73.8272 428.226 74.7192C427.782 75.1252 427.383 75.5786 427.037 76.0714C427.037 76.0714 427.037 75.8922 427.216 75.6153C427.447 75.2189 427.732 74.8569 428.064 74.54C429.213 73.5445 430.681 72.9952 432.201 72.9924C433.728 72.9024 435.23 73.4108 436.388 74.4097C436.725 74.7138 437.016 75.065 437.252 75.4524C437.352 75.5888 437.424 75.7439 437.464 75.9085Z" fill="#263238"/>
<path d="M432.283 69.3104C432.283 69.3104 432.429 69.1312 432.56 68.8868V69.0823C432.417 68.9544 432.3 68.7994 432.218 68.6262C431.908 68.0723 431.973 67.5347 432.071 67.5347C432.169 67.5347 432.25 67.9908 432.511 68.4633C432.592 68.6262 432.69 68.7728 432.772 68.9031V69.0009C432.56 69.343 432.299 69.3756 432.283 69.3104Z" fill="#263238"/>
<path d="M434.222 68.0559C434.14 68.0559 433.945 68.0559 433.749 68.0559C433.554 68.0559 433.407 68.2351 433.309 68.2025C433.212 68.1699 433.309 67.7952 433.7 67.7138C434.091 67.6323 434.303 68.0233 434.222 68.0559Z" fill="#263238"/>
<path d="M430.849 68.3816C430.849 68.3816 430.605 68.3816 430.393 68.3816C430.181 68.3816 430.002 68.3816 429.937 68.3816C429.872 68.3816 430.051 68.072 430.393 68.072C430.735 68.072 430.915 68.3164 430.849 68.3816Z" fill="#263238"/>
<path d="M429.937 73.5784C429.579 73.8341 429.183 74.032 428.764 74.1649C428.431 74.2153 428.092 74.1335 427.819 73.9368C427.482 73.7063 427.243 73.3574 427.151 72.9594C427.087 72.7358 427.087 72.4987 427.151 72.2751C427.233 72.0633 427.282 71.933 427.151 71.7701C426.978 71.576 426.864 71.336 426.823 71.0788C426.783 70.8216 426.818 70.5582 426.923 70.3202C427.184 69.7989 427.673 69.5545 427.721 69.1146C427.77 68.6747 427.721 68.1371 427.721 67.6321C427.739 67.1397 427.844 66.6543 428.031 66.1985C428.174 65.8167 428.392 65.4673 428.671 65.1708C428.951 64.8742 429.287 64.6365 429.66 64.4716C429.993 64.2831 430.369 64.1841 430.752 64.1841C431.134 64.1841 431.51 64.2831 431.843 64.4716C431.153 64.2774 430.418 64.3233 429.758 64.6019C429.066 64.9297 428.528 65.514 428.259 66.2311C428.101 66.6477 428.019 67.0889 428.015 67.5344C428.015 68.0068 428.145 68.4793 428.015 69.0657C427.884 69.6522 427.33 69.9781 427.168 70.3528C427.087 70.547 427.063 70.7599 427.097 70.9672C427.132 71.1745 427.224 71.368 427.363 71.5257C427.427 71.6402 427.461 71.7692 427.461 71.9004C427.461 72.0317 427.427 72.1607 427.363 72.2751C427.307 72.4499 427.307 72.6379 427.363 72.8127C427.446 73.1454 427.642 73.439 427.917 73.6436C428.122 73.7873 428.367 73.8644 428.617 73.8644C428.868 73.8644 429.113 73.7873 429.318 73.6436C429.518 73.5823 429.728 73.5602 429.937 73.5784Z" fill="#263238"/>
<path d="M435.395 73.9699C435.579 73.9542 435.764 73.9542 435.949 73.9699C436.188 73.9849 436.425 73.9095 436.612 73.7588C436.799 73.608 436.922 73.3928 436.959 73.1553C437.062 72.8322 437.062 72.4847 436.959 72.1616C436.919 71.9305 436.965 71.6929 437.089 71.4936C437.202 71.3264 437.279 71.138 437.317 70.9397C437.411 70.535 437.347 70.1095 437.138 69.7505C436.926 69.3758 436.568 69.0336 436.291 68.5775C435.947 67.6963 435.664 66.7928 435.444 65.8731C435.298 65.5404 435.073 65.2481 434.789 65.0211C434.506 64.7941 434.171 64.6393 433.814 64.5698C433.123 64.4739 432.427 64.4249 431.729 64.4232C432.437 64.2636 433.172 64.2636 433.88 64.4232C434.28 64.4868 434.659 64.6478 434.983 64.8921C435.307 65.1364 435.566 65.4565 435.737 65.8243C436.128 66.6551 436.128 67.6652 436.6 68.4797C436.828 68.887 437.203 69.2291 437.447 69.669C437.574 69.8827 437.657 70.1197 437.69 70.366C437.724 70.6123 437.708 70.8627 437.643 71.1026C437.529 71.5914 437.154 71.8683 437.268 72.1942C437.382 72.5547 437.382 72.9414 437.268 73.302C437.174 73.6119 436.979 73.8814 436.714 74.0676C436.504 74.1952 436.253 74.2361 436.014 74.1817C435.792 74.1671 435.579 74.094 435.395 73.9699Z" fill="#263238"/>
<path d="M431.208 73.3831C431.208 73.3831 431.012 73.0572 430.963 72.6174C430.914 72.1775 430.963 71.8191 431.061 71.8191C431.159 71.8191 431.257 72.1449 431.305 72.5848C431.354 73.0246 431.208 73.3668 431.208 73.3831Z" fill="#263238"/>
<path d="M433.847 71.7213C433.928 71.7213 433.961 72.0797 433.847 72.5033C433.733 72.9268 433.651 73.2527 433.554 73.2364C433.456 73.2201 433.44 72.878 433.554 72.4544C433.668 72.0308 433.749 71.705 433.847 71.7213Z" fill="#263238"/>
<path d="M273.378 55.4954H217.89V135.257H273.378V55.4954Z" fill="#EBEBEB"/>
<path d="M252.004 79.9489C248.82 80.2965 245.608 80.2965 242.424 79.9489C245.608 79.6013 248.82 79.6013 252.004 79.9489Z" fill="#263238"/>
<path d="M236.788 81.9528C234.555 82.2143 232.305 82.3015 230.059 82.2135C227.813 82.3015 225.564 82.2143 223.331 81.9528C225.565 81.7118 227.814 81.6302 230.059 81.7084C232.305 81.6302 234.553 81.7118 236.788 81.9528Z" fill="#263238"/>
<path d="M236.788 85.4877C234.553 85.7287 232.305 85.8103 230.059 85.7321C227.814 85.8103 225.565 85.7287 223.331 85.4877C225.564 85.2262 227.813 85.139 230.059 85.227C232.305 85.139 234.555 85.2262 236.788 85.4877Z" fill="#263238"/>
<path d="M236.788 89.0065C234.555 89.268 232.305 89.3552 230.059 89.2671C227.813 89.3552 225.564 89.268 223.331 89.0065C225.564 88.745 227.813 88.6578 230.059 88.7458C232.305 88.6578 234.555 88.745 236.788 89.0065Z" fill="#263238"/>
<path d="M230.825 92.5254C229.6 92.7861 228.344 92.8739 227.094 92.786C225.839 92.8733 224.578 92.7855 223.347 92.5254C224.581 92.2854 225.84 92.2033 227.094 92.281C228.343 92.2029 229.597 92.2851 230.825 92.5254Z" fill="#263238"/>
<path d="M264.027 85.6667C264.027 85.8133 259.139 85.9273 253.225 85.9273C247.312 85.9273 242.408 85.8133 242.408 85.6667C242.408 85.5201 247.295 85.406 253.225 85.406C259.155 85.406 264.027 85.5201 264.027 85.6667Z" fill="#263238"/>
<path d="M264.336 89.1042C264.336 89.2508 259.449 89.3648 253.519 89.3648C247.589 89.3648 242.718 89.2508 242.718 89.1042C242.718 88.9576 247.605 88.8435 253.519 88.8435C259.432 88.8435 264.336 88.9576 264.336 89.1042Z" fill="#263238"/>
<path d="M252.004 96.9565C248.82 97.304 245.608 97.304 242.424 96.9565C245.608 96.6089 248.82 96.6089 252.004 96.9565Z" fill="#263238"/>
<path d="M264.027 102.675C264.027 102.822 259.139 102.936 253.225 102.936C247.312 102.936 242.408 102.822 242.408 102.675C242.408 102.528 247.295 102.431 253.225 102.431C259.155 102.431 264.027 102.545 264.027 102.675Z" fill="#263238"/>
<path d="M264.336 106.112C264.336 106.259 259.449 106.373 253.519 106.373C247.589 106.373 242.718 106.259 242.718 106.112C242.718 105.966 247.605 105.868 253.519 105.868C259.432 105.868 264.336 105.982 264.336 106.112Z" fill="#263238"/>
<path d="M252.004 114.698C248.82 115.046 245.608 115.046 242.424 114.698C245.608 114.351 248.82 114.351 252.004 114.698Z" fill="#263238"/>
<path d="M264.027 120.351C264.027 120.497 259.139 120.611 253.225 120.611C247.312 120.611 242.408 120.497 242.408 120.351C242.408 120.204 247.295 120.09 253.225 120.09C259.155 120.09 264.027 120.204 264.027 120.351Z" fill="#263238"/>
<path d="M264.336 123.788C264.336 123.935 259.449 124.049 253.519 124.049C247.589 124.049 242.718 123.935 242.718 123.788C242.718 123.642 247.605 123.528 253.519 123.528C259.432 123.528 264.336 123.642 264.336 123.788Z" fill="#263238"/>
<path d="M267.008 71.0046C267.008 71.1349 261.892 71.2489 255.604 71.2489C249.316 71.2489 244.2 71.1349 244.2 71.0046C244.2 70.8742 249.332 70.7439 255.604 70.7439C261.876 70.7439 267.008 70.8579 267.008 71.0046Z" fill="#263238"/>
<path d="M255.832 74.2953C252.038 74.6193 248.223 74.6193 244.428 74.2953C248.222 73.9497 252.039 73.9497 255.832 74.2953Z" fill="#263238"/>
<path d="M237.716 75.8269C237.697 75.4687 237.697 75.1098 237.716 74.7517C237.716 73.9534 237.716 72.9759 237.716 71.8355C237.716 69.18 237.716 65.6774 237.602 61.5557L237.814 61.7838H223.543L223.803 61.5231V65.3353C223.803 66.606 223.803 67.8279 223.803 69.0334C223.803 71.4119 223.803 73.6764 223.803 75.7617L223.575 75.5336L233.855 75.6477H236.771H237.847C237.521 75.6702 237.195 75.6702 236.869 75.6477H234.002L223.575 75.7617H223.364V75.5336C223.364 73.4483 223.364 71.1839 223.364 68.8053V61.5883C223.136 61.8164 223.673 61.2787 223.608 61.3276H237.879H238.107V61.5394C238.107 65.7263 238.026 69.2615 237.993 71.9495C237.993 73.0899 237.993 74.0348 237.993 74.8331C237.925 75.1706 237.833 75.5028 237.716 75.8269Z" fill="#263238"/>
<path d="M229.196 64.7651C229.44 64.5726 229.734 64.4539 230.043 64.423C230.888 64.3155 231.742 64.5436 232.421 65.0583C232.892 65.4596 233.269 65.9594 233.525 66.5225C233.782 67.0855 233.911 67.698 233.904 68.3166C233.928 69.0649 233.771 69.808 233.448 70.4833C233.263 70.8512 233.002 71.1754 232.682 71.4339C232.361 71.6924 231.989 71.8793 231.591 71.9821C230.834 72.1799 230.034 72.1282 229.309 71.8347C228.584 71.5412 227.973 71.0215 227.567 70.353C227.211 69.7705 227.036 69.0962 227.062 68.4143C227.063 67.8623 227.145 67.3134 227.306 66.7852C227.416 66.375 227.609 65.9916 227.872 65.6583C228.135 65.325 228.464 65.0488 228.837 64.8466C229.105 64.7005 229.398 64.6065 229.701 64.5696C229.701 64.5696 229.391 64.6673 228.903 64.9606C228.237 65.38 227.759 66.0391 227.567 66.8015C227.387 67.3635 227.322 67.9558 227.375 68.5434C227.428 69.131 227.599 69.702 227.876 70.2227C228.238 70.8404 228.793 71.322 229.455 71.5929C230.118 71.8638 230.851 71.909 231.542 71.7215C232.201 71.4861 232.764 71.0384 233.141 70.4486C233.519 69.8589 233.689 69.1606 233.627 68.4632C233.653 67.8742 233.548 67.2867 233.32 66.7431C233.092 66.1994 232.746 65.7131 232.307 65.319C231.69 64.8035 230.894 64.5519 230.092 64.6185C229.79 64.6427 229.49 64.6918 229.196 64.7651Z" fill="#263238"/>
<path d="M233.725 69.2291C233.725 69.2291 234.23 68.9847 234.214 68.496C234.197 68.0073 233.594 67.9258 233.594 67.8606C233.594 67.7955 233.725 67.7303 233.953 67.8606C234.108 67.9024 234.247 67.99 234.352 68.1121C234.457 68.2342 234.522 68.385 234.539 68.5449C234.557 68.7026 234.523 68.8618 234.444 68.9994C234.365 69.137 234.244 69.246 234.1 69.3106C233.871 69.3269 233.725 69.278 233.725 69.2291Z" fill="#263238"/>
<path d="M227.241 68.4307C227.241 68.4307 226.801 68.7728 226.931 69.2452C227.062 69.7177 227.648 69.6688 227.664 69.734C227.681 69.7992 227.567 69.8806 227.322 69.8806C227.162 69.8784 227.006 69.8256 226.877 69.7298C226.747 69.634 226.652 69.5 226.603 69.3468C226.555 69.1936 226.555 69.029 226.605 68.8762C226.656 68.7235 226.752 68.5904 226.882 68.4958C227.078 68.3655 227.225 68.3818 227.241 68.4307Z" fill="#263238"/>
<path d="M232.145 69.4246C232.259 69.4246 231.916 70.3044 230.874 70.4673C229.831 70.6302 229.245 69.783 229.391 69.7667C229.84 69.9969 230.337 70.1196 230.841 70.1252C231.672 70.0274 232.079 69.3595 232.145 69.4246Z" fill="#263238"/>
<path d="M232.796 66.0359C232.796 66.0359 232.568 66.2803 232.063 66.4595C231.745 66.5596 231.404 66.5596 231.086 66.4595C230.87 66.4119 230.673 66.3038 230.517 66.148C230.362 65.9921 230.253 65.795 230.206 65.5798L230.499 65.6775C229.987 66.198 229.305 66.5162 228.577 66.5735C228.023 66.5735 227.697 66.5735 227.713 66.4595C228.656 66.4217 229.557 66.0656 230.271 65.4494L230.515 65.2051V65.5309C230.553 65.6822 230.63 65.8207 230.739 65.9323C230.848 66.044 230.984 66.1247 231.134 66.1663C231.407 66.2381 231.693 66.2381 231.965 66.1663C232.454 66.1174 232.78 65.9871 232.796 66.0359Z" fill="#263238"/>
<path d="M235.859 75.8267C235.473 75.3626 235.059 74.922 234.621 74.5071C233.479 73.6208 232.056 73.1754 230.613 73.2527C229.166 73.2582 227.762 73.7454 226.622 74.6374C226.181 75.052 225.778 75.5044 225.416 75.9896C225.453 75.827 225.52 75.6725 225.612 75.5335C225.833 75.131 226.119 74.7677 226.459 74.4582C227.596 73.4332 229.066 72.8545 230.597 72.8291C232.119 72.74 233.615 73.2485 234.767 74.2464C235.113 74.5463 235.41 74.8981 235.647 75.2891C235.758 75.4496 235.831 75.6336 235.859 75.8267Z" fill="#263238"/>
<path d="M230.678 69.2288C230.678 69.2288 230.825 69.0496 230.955 68.8052V68.9844C230.826 68.848 230.717 68.6945 230.629 68.5283C230.32 67.9581 230.385 67.4368 230.483 67.4368C230.581 67.4368 230.662 67.8929 230.923 68.3654C231.004 68.5283 231.102 68.6749 231.183 68.8052L231.265 68.903H231.183C230.955 69.2614 230.695 69.2777 230.678 69.2288Z" fill="#263238"/>
<path d="M232.601 67.9746C232.601 67.9746 232.34 67.9746 232.144 67.9746C231.949 67.9746 231.786 68.1538 231.705 68.1212C231.623 68.0886 231.705 67.7139 232.096 67.6325C232.487 67.551 232.698 67.942 232.601 67.9746Z" fill="#263238"/>
<path d="M229.196 68.3002C229.196 68.3002 228.951 68.3002 228.74 68.3002C228.528 68.3002 228.332 68.3002 228.283 68.3002C228.235 68.3002 228.398 67.9907 228.74 67.9907C229.082 67.9907 229.31 68.2188 229.196 68.3002Z" fill="#263238"/>
<path d="M229.538 73.3018C229.456 73.3018 229.342 72.9759 229.294 72.5361C229.245 72.0962 229.294 71.7378 229.391 71.7378C229.489 71.7378 229.587 72.0636 229.636 72.4872C229.685 72.9108 229.636 73.2855 229.538 73.3018Z" fill="#263238"/>
<path d="M232.242 71.6402C232.242 71.6402 232.356 71.9986 232.242 72.4222C232.128 72.8458 232.047 73.1716 231.949 73.1553C231.851 73.139 231.835 72.7969 231.949 72.3733C232.063 71.9498 232.145 71.6239 232.242 71.6402Z" fill="#263238"/>
<path d="M226.948 74.2628C226.85 74.2628 227.094 73.269 227.159 72.0472C227.225 70.8253 227.159 69.8478 227.159 69.8315C227.639 71.288 227.546 72.8726 226.899 74.2628H226.948Z" fill="#263238"/>
<path d="M234.474 73.9697C234.208 73.184 234.038 72.3689 233.969 71.5423C233.793 70.735 233.732 69.9066 233.79 69.0823C234.074 69.858 234.25 70.6695 234.311 71.4934C234.478 72.3075 234.533 73.1407 234.474 73.9697Z" fill="#263238"/>
<path d="M295.469 183.627L298.825 238.072C298.887 239.007 299.301 239.884 299.985 240.525C300.668 241.166 301.569 241.524 302.507 241.526H400.531C401.505 241.522 402.437 241.132 403.124 240.442C403.811 239.752 404.197 238.818 404.197 237.844V195.487C404.197 195.003 404.101 194.524 403.915 194.077C403.728 193.63 403.455 193.224 403.112 192.883C402.768 192.543 402.36 192.273 401.911 192.091C401.463 191.909 400.983 191.817 400.499 191.821L340.221 192.196C339.738 192.201 339.259 192.11 338.811 191.928C338.364 191.746 337.957 191.477 337.614 191.137L327.139 180.825C326.798 180.487 326.394 180.219 325.949 180.037C325.505 179.856 325.029 179.763 324.549 179.766H299.134C298.637 179.768 298.145 179.87 297.688 180.067C297.231 180.264 296.819 180.552 296.476 180.913C296.133 181.274 295.868 181.7 295.694 182.167C295.521 182.633 295.444 183.13 295.469 183.627Z" fill="#FDC800"/>
<path opacity="0.4" d="M295.469 183.627L298.825 238.072C298.887 239.007 299.301 239.884 299.985 240.525C300.668 241.166 301.569 241.524 302.507 241.526H400.531C401.505 241.522 402.437 241.132 403.124 240.442C403.811 239.752 404.197 238.818 404.197 237.844V195.487C404.197 195.003 404.101 194.524 403.915 194.077C403.728 193.63 403.455 193.224 403.112 192.883C402.768 192.543 402.36 192.273 401.911 192.091C401.463 191.909 400.983 191.817 400.499 191.821L340.221 192.196C339.738 192.201 339.259 192.11 338.811 191.928C338.364 191.746 337.957 191.477 337.614 191.137L327.139 180.825C326.798 180.487 326.394 180.219 325.949 180.037C325.505 179.856 325.029 179.763 324.549 179.766H299.134C298.637 179.768 298.145 179.87 297.688 180.067C297.231 180.264 296.819 180.552 296.476 180.913C296.133 181.274 295.868 181.7 295.694 182.167C295.521 182.633 295.444 183.13 295.469 183.627Z" fill="black"/>
<path d="M289.278 206.386L297.424 273.18C297.499 273.75 297.777 274.274 298.209 274.654C298.64 275.035 299.195 275.246 299.77 275.249H404.148C404.745 275.251 405.32 275.026 405.758 274.622C406.196 274.217 406.465 273.661 406.51 273.066L411.756 206.272C411.783 205.947 411.742 205.62 411.637 205.311C411.531 205.003 411.363 204.72 411.143 204.479C410.922 204.239 410.655 204.047 410.356 203.915C410.058 203.784 409.736 203.715 409.41 203.714H291.624C291.287 203.713 290.954 203.785 290.648 203.923C290.341 204.062 290.067 204.264 289.845 204.517C289.623 204.771 289.457 205.068 289.359 205.39C289.262 205.712 289.234 206.052 289.278 206.386Z" fill="#FDC800"/>
<path d="M160.398 213.505L163.917 259.821C163.978 260.614 164.339 261.355 164.926 261.893C165.512 262.432 166.281 262.727 167.077 262.721L250.554 261.531C250.964 261.527 251.37 261.442 251.748 261.281C252.126 261.12 252.469 260.886 252.756 260.592C253.043 260.299 253.27 259.952 253.423 259.57C253.577 259.189 253.653 258.782 253.649 258.371L253.128 222.221C253.126 221.801 253.039 221.387 252.873 221.002C252.706 220.618 252.463 220.271 252.158 219.983C251.854 219.695 251.494 219.472 251.1 219.327C250.707 219.183 250.288 219.119 249.869 219.141L198.536 220.184C197.707 220.202 196.905 219.891 196.304 219.321L187.262 210.654C186.968 210.37 186.621 210.148 186.241 209.999C185.861 209.851 185.455 209.78 185.046 209.79L163.412 210.1C162.986 210.114 162.568 210.214 162.183 210.395C161.797 210.576 161.453 210.834 161.171 211.153C160.889 211.472 160.675 211.845 160.542 212.249C160.409 212.653 160.36 213.081 160.398 213.505Z" fill="#FF725E"/>
<path d="M253.018 213.647L161.812 214.936L162.583 269.441L253.789 268.152L253.018 213.647Z" fill="#F5F5F5"/>
<path d="M154.614 219.924L162.402 276.666C162.472 277.151 162.715 277.594 163.086 277.915C163.457 278.235 163.932 278.41 164.422 278.409L253.307 277.139C253.814 277.136 254.301 276.941 254.669 276.593C255.038 276.245 255.261 275.771 255.294 275.265L258.96 218.36C258.978 218.083 258.939 217.806 258.844 217.545C258.749 217.284 258.602 217.046 258.41 216.846C258.219 216.645 257.988 216.486 257.732 216.38C257.476 216.273 257.201 216.22 256.924 216.225L156.602 217.643C156.316 217.645 156.034 217.708 155.774 217.827C155.514 217.947 155.282 218.12 155.095 218.336C154.907 218.551 154.767 218.804 154.684 219.078C154.601 219.352 154.577 219.64 154.614 219.924Z" fill="#FDC800"/>
<path d="M456.443 209.562L459.88 254.803C459.935 255.581 460.287 256.308 460.863 256.832C461.44 257.357 462.196 257.64 462.976 257.621L544.514 256.481C544.916 256.474 545.313 256.389 545.682 256.229C546.051 256.069 546.385 255.838 546.665 255.549C546.945 255.26 547.165 254.919 547.313 254.545C547.461 254.171 547.534 253.771 547.528 253.369L547.039 218.099C547.022 217.285 546.683 216.511 546.097 215.946C545.511 215.381 544.725 215.072 543.911 215.085L493.766 216.111C492.956 216.125 492.172 215.821 491.583 215.264L482.753 206.809C482.173 206.246 481.394 205.936 480.587 205.945L459.408 206.255C458.992 206.264 458.582 206.359 458.204 206.533C457.826 206.707 457.488 206.957 457.21 207.267C456.932 207.577 456.721 207.94 456.589 208.335C456.457 208.73 456.407 209.147 456.443 209.562Z" fill="#FF725E"/>
<path opacity="0.4" d="M456.443 209.562L459.88 254.803C459.935 255.581 460.287 256.308 460.863 256.832C461.44 257.357 462.196 257.64 462.976 257.621L544.514 256.481C544.916 256.474 545.313 256.389 545.682 256.229C546.051 256.069 546.385 255.838 546.665 255.549C546.945 255.26 547.165 254.919 547.313 254.545C547.461 254.171 547.534 253.771 547.528 253.369L547.039 218.099C547.022 217.285 546.683 216.511 546.097 215.946C545.511 215.381 544.725 215.072 543.911 215.085L493.766 216.111C492.956 216.125 492.172 215.821 491.583 215.264L482.753 206.809C482.173 206.246 481.394 205.936 480.587 205.945L459.408 206.255C458.992 206.264 458.582 206.359 458.204 206.533C457.826 206.707 457.488 206.957 457.21 207.267C456.932 207.577 456.721 207.94 456.589 208.335C456.457 208.73 456.407 209.147 456.443 209.562Z" fill="black"/>
<path d="M546.909 209.704L457.805 210.964L458.557 264.198L547.662 262.939L546.909 209.704Z" fill="#EBEBEB"/>
<path d="M450.757 215.834L458.349 271.225C458.413 271.704 458.651 272.143 459.017 272.458C459.384 272.774 459.853 272.943 460.337 272.935L547.153 271.697C547.649 271.694 548.126 271.502 548.486 271.16C548.846 270.818 549.062 270.352 549.091 269.856L552.676 214.287C552.696 214.015 552.66 213.742 552.568 213.485C552.477 213.229 552.334 212.994 552.146 212.796C551.959 212.598 551.733 212.442 551.482 212.337C551.231 212.231 550.96 212.18 550.688 212.185L452.68 213.57C452.398 213.574 452.121 213.638 451.866 213.758C451.612 213.877 451.386 214.051 451.204 214.265C451.022 214.48 450.888 214.731 450.811 215.001C450.734 215.272 450.715 215.556 450.757 215.834Z" fill="#FDC800"/>
<path d="M324.304 285.251L315.54 289.405L307.508 276.796L312.2 267.021C312.656 266.109 313.129 265.099 313.634 263.942C314.216 262.583 314.563 261.134 314.66 259.658C314.86 257.835 314.816 255.994 314.53 254.184C314.09 252.555 315.817 251.219 316.973 252.164C318.13 253.108 319.45 257.556 318.602 262.932C317.755 268.308 323.979 262.606 326.292 260.57C328.605 258.533 336.067 252.587 337.207 252.815C338.918 253.157 338.836 255.112 336.523 257.084C334.209 259.055 327.514 265.49 328.605 266.679C329.972 266.82 331.259 267.388 332.283 268.304C333.307 269.22 334.016 270.436 334.307 271.778C334.91 274.417 335.382 278.067 333.9 279.272C330.834 281.471 327.629 283.468 324.304 285.251Z" fill="#FFBE9D"/>
<path d="M153.132 172.891L152.92 240.141L181.772 241.526L182.603 225.234C182.603 225.234 192.85 227.271 195.505 217.74C197.135 211.664 196.76 164.68 196.76 164.68L153.132 172.891Z" fill="#FFBE9D"/>
<path d="M203.276 171.262C201.338 175.269 192.084 182.665 192.084 182.665L187.897 193.858C184.281 191.023 179.393 191.186 178.481 197.556C177.813 202.166 183.548 203.111 183.548 203.111C180.289 208.78 177.943 213.374 173.089 218.783C167.827 224.632 164.943 225.218 159.176 225.3H152.887C152.887 225.3 140.017 214.547 142.559 186.201C145.1 157.854 170.563 166.146 176.64 159.059C186.545 147.541 209.777 157.837 203.276 171.262Z" fill="#263238"/>
<path d="M143.992 209.888H144.791C145.557 209.866 146.32 209.779 147.071 209.628C149.83 208.979 152.373 207.627 154.451 205.701C157.441 202.763 159.963 199.384 161.929 195.682C164.373 191.675 167.045 186.95 171.704 183.773C173.965 182.309 176.461 181.245 179.084 180.629C181.593 179.977 184.053 179.586 186.366 179.13C190.531 178.594 194.517 177.105 198.014 174.78C200.309 173.113 201.974 170.719 202.739 167.987C202.971 166.978 203.058 165.941 202.999 164.908C202.999 164.908 202.999 165.185 203.081 165.706C203.107 166.484 203.03 167.262 202.853 168.02C202.132 170.808 200.476 173.264 198.161 174.976C194.647 177.348 190.633 178.876 186.431 179.44C181.837 180.385 176.461 181.069 171.899 184.05C167.338 187.032 164.715 191.837 162.255 195.845C160.264 199.562 157.709 202.948 154.679 205.881C152.561 207.811 149.97 209.149 147.169 209.758C146.125 209.98 145.051 210.024 143.992 209.888Z" fill="#455A64"/>
<path d="M169.667 502.626L181.397 682.042L208.62 679.029C208.62 679.029 209.288 504.06 208.017 504.223C206.746 504.386 169.667 502.626 169.667 502.626Z" fill="#FFBE9D"/>
<path d="M112.583 501.552L81.9715 679.42L106.164 683.102L148.57 510.007L112.583 501.552Z" fill="#FFBE9D"/>
<path d="M121.624 389.777L79.8536 629.568L128.271 640.06L165.024 440.182L173.252 634.651H218.215L210.135 382.429L121.624 389.777Z" fill="#263238"/>
<path d="M128.923 641.037L78.925 630.203L79.0553 629.438L120.924 389.011H121.559L210.933 381.598V382.446L219.079 635.514H172.486V634.749L164.519 447.448L128.923 641.037ZM80.7985 628.933L127.62 639.082L165.529 432.916L174.033 633.836H217.385L209.353 383.309L122.309 390.526L80.7985 628.933Z" fill="#263238"/>
<path d="M177.797 439.937C177.264 440.076 176.718 440.153 176.168 440.165L171.688 440.508C167.892 440.768 162.646 441.029 156.879 441.599C151.112 442.169 145.931 442.935 142.217 443.424L137.753 443.978C137.217 444.084 136.668 444.111 136.124 444.059C136.648 443.856 137.195 443.719 137.753 443.652C138.795 443.44 140.311 443.147 142.184 442.821C145.947 442.186 151.128 441.322 156.928 440.752C162.727 440.182 167.989 440.019 171.785 439.905C173.691 439.905 175.223 439.905 176.298 439.905C176.797 439.847 177.301 439.858 177.797 439.937Z" fill="#455A64"/>
<path d="M211.08 421.463C210.728 421.637 210.347 421.742 209.956 421.773C208.915 421.927 207.862 421.976 206.812 421.919C203.3 421.76 199.911 420.583 197.056 418.532C194.202 416.482 192.004 413.645 190.732 410.369C190.338 409.392 190.049 408.376 189.869 407.339C189.79 406.957 189.79 406.563 189.869 406.182C190.015 406.182 190.276 407.811 191.351 410.124C192.721 413.204 194.885 415.863 197.622 417.83C200.359 419.797 203.57 421 206.926 421.316C209.434 421.593 211.047 421.316 211.08 421.463Z" fill="#455A64"/>
<path d="M218.851 624.616C218.851 624.844 208.685 624.518 196.173 623.883C183.662 623.247 173.512 622.547 173.528 622.253C173.545 621.96 183.694 622.351 196.222 622.987C208.75 623.622 218.867 624.371 218.851 624.616Z" fill="#455A64"/>
<path d="M131.285 625.805C130.63 625.716 129.985 625.557 129.363 625.332L124.215 623.784C119.865 622.481 113.854 620.754 107.142 619.06C100.43 617.366 94.304 616.046 89.8728 615.134L84.5944 614.042C83.9416 613.957 83.3016 613.793 82.6883 613.553C83.3489 613.549 84.0087 613.603 84.6596 613.716C85.914 613.879 87.7386 614.156 89.9705 614.531C94.4506 615.297 100.625 616.535 107.353 618.229C114.082 619.923 120.093 621.764 124.394 623.214C126.544 623.931 128.288 624.55 129.461 625.023C130.093 625.223 130.704 625.485 131.285 625.805Z" fill="#455A64"/>
<path d="M117.324 405.856H212.057L208.392 329.287C207.789 314.234 207.87 312.442 207.496 298.562C207.496 298.562 221.653 315.651 232.764 327.641C236.044 331.168 240.363 333.559 245.093 334.467C249.824 335.375 254.721 334.753 259.074 332.692L317.283 292.078L306.384 264.203L253.486 296.574C251.059 295.075 230.467 265.702 216.244 251.366C207.143 242.199 194.864 236.885 181.951 236.524C171.226 236.26 160.495 236.69 149.825 237.811C142.053 238.642 134.813 242.156 129.354 247.75C123.894 253.343 120.556 260.665 119.914 268.455C118.871 280.739 119.702 295.01 119.702 319.268L117.324 405.856Z" fill="#455A64"/>
<path d="M132.556 244.833C123.628 248.792 86.3212 296.59 83.6821 327.625C81.7108 350.775 126.74 348.25 126.74 348.25C126.74 348.25 129.803 253.304 128.467 254.657" fill="#455A64"/>
<path d="M123.433 252.93C123.433 252.93 123.433 253.272 123.433 253.924C123.433 254.575 123.286 255.553 123.205 256.758C123.009 259.218 122.749 262.802 122.52 267.217C122.015 276.047 121.592 288.266 121.168 301.771C120.745 315.277 120.37 327.495 119.914 336.325C119.702 340.756 119.474 344.324 119.295 346.8C119.197 347.962 119.116 348.907 119.05 349.635C119.05 350.287 118.953 350.629 118.953 350.629C118.953 350.629 118.953 350.287 118.953 349.635C118.953 348.983 119.05 348.006 119.116 346.784C119.246 344.21 119.425 340.658 119.637 336.325C120.028 327.479 120.37 315.26 120.794 301.755C121.217 288.249 121.673 276.031 122.244 267.201C122.52 262.786 122.797 259.218 123.042 256.742C123.156 255.585 123.254 254.657 123.319 253.907C123.384 253.158 123.433 252.93 123.433 252.93Z" fill="#263238"/>
<path d="M119.751 313.843C119.378 314.469 118.953 315.063 118.48 315.619C117.633 316.678 116.444 318.128 115.059 319.643C113.674 321.158 112.371 322.51 111.394 323.439C110.897 323.972 110.352 324.457 109.764 324.889C110.216 324.314 110.706 323.769 111.231 323.259C112.176 322.282 113.446 320.93 114.831 319.398C116.216 317.867 117.421 316.466 118.301 315.456C118.747 314.886 119.232 314.347 119.751 313.843Z" fill="#263238"/>
<path d="M251.303 305.99C251.311 305.528 251.377 305.068 251.499 304.622C251.661 303.775 251.922 302.618 252.215 301.363C252.509 300.109 252.802 298.936 253.03 298.105C253.126 297.652 253.268 297.21 253.454 296.786C253.447 297.254 253.381 297.719 253.258 298.17C253.095 299.001 252.851 300.158 252.541 301.429C252.232 302.699 251.971 303.84 251.743 304.687C251.655 305.139 251.507 305.577 251.303 305.99Z" fill="#263238"/>
<path d="M256.614 306.805C256.044 305.094 255.587 303.347 255.246 301.576C254.794 299.827 254.446 298.054 254.203 296.265C254.77 297.977 255.227 299.724 255.571 301.494C256.023 303.242 256.371 305.016 256.614 306.805Z" fill="#263238"/>
<path d="M209.956 301.022L209.418 300.533L207.887 299.051C206.584 297.764 204.629 295.89 202.413 293.495C199.748 290.704 197.267 287.744 194.984 284.633C192.164 280.824 189.888 276.64 188.223 272.203C186.537 267.755 185.777 263.009 185.991 258.257C186.057 254.374 186.91 250.544 188.5 247C189.63 244.637 191.305 242.577 193.388 240.988C193.953 240.558 194.546 240.167 195.163 239.816C195.374 239.69 195.592 239.576 195.815 239.473C195.815 239.473 194.919 239.962 193.469 241.103C191.438 242.717 189.81 244.78 188.712 247.13C187.172 250.653 186.347 254.446 186.285 258.29C186.085 263 186.85 267.701 188.533 272.105C192.019 281.554 198.193 288.526 202.576 293.284C204.808 295.695 206.681 297.584 207.968 298.904L209.451 300.435C209.793 300.826 209.956 301.022 209.956 301.022Z" fill="#263238"/>
<path d="M216.717 252.376C216.717 252.604 196.255 252.8 171.003 252.8C145.752 252.8 125.29 252.604 125.29 252.376C125.29 252.148 145.752 251.952 171.003 251.952C196.255 251.952 216.717 252.132 216.717 252.376Z" fill="#263238"/>
<path d="M227.974 265.637C227.974 265.865 202.527 266.061 171.15 266.061C139.773 266.061 114.31 265.865 114.31 265.637C114.31 265.409 139.757 265.214 171.15 265.214C202.543 265.214 227.974 265.393 227.974 265.637Z" fill="#263238"/>
<path d="M241.936 279.354C241.936 279.599 211.308 279.778 173.512 279.778C135.716 279.778 105.089 279.599 105.089 279.354C105.089 279.11 135.7 278.931 173.512 278.931C211.324 278.931 241.936 279.126 241.936 279.354Z" fill="#263238"/>
<path d="M251.531 294C251.531 294.228 216.505 294.424 173.333 294.424C130.161 294.424 95.1348 294.228 95.1348 294C95.1348 293.772 130.145 293.576 173.333 293.576C216.521 293.576 251.531 293.756 251.531 294Z" fill="#263238"/>
<path d="M207.805 310.927C207.395 310.978 206.981 311.005 206.567 311.008L203.065 311.089L190.162 311.22L147.56 311.35L104.958 311.22L92.0558 311.089L88.5532 311.008C88.1392 311.005 87.7258 310.978 87.315 310.927C87.7234 310.852 88.1382 310.819 88.5532 310.829H92.0558L104.958 310.698L147.56 310.568L190.162 310.698L203.065 310.829H206.567C206.982 310.819 207.397 310.852 207.805 310.927Z" fill="#263238"/>
<path d="M290.418 311.823C290.418 312.051 274.241 312.246 254.284 312.246C234.328 312.246 218.15 312.051 218.15 311.823C218.15 311.595 234.328 311.399 254.284 311.399C274.241 311.399 290.418 311.595 290.418 311.823Z" fill="#263238"/>
<path d="M267.35 326.925C267.35 327.169 259.498 327.348 249.837 327.348C240.176 327.348 232.324 327.169 232.324 326.925C232.324 326.68 240.16 326.501 249.837 326.501C259.514 326.501 267.35 326.697 267.35 326.925Z" fill="#263238"/>
<path d="M312.379 295.369C312.379 295.597 300.389 295.792 285.613 295.792C270.836 295.792 258.846 295.597 258.846 295.369C258.846 295.141 270.836 294.945 285.613 294.945C300.389 294.945 312.379 295.124 312.379 295.369Z" fill="#263238"/>
<path d="M208.913 328.652C208.913 328.88 180.713 329.075 145.947 329.075C111.182 329.075 82.9815 328.88 82.9815 328.652C82.9815 328.424 111.165 328.228 145.947 328.228C180.729 328.228 208.913 328.424 208.913 328.652Z" fill="#263238"/>
<path d="M209.956 348.331C209.956 348.576 189.396 348.755 164.047 348.755C138.698 348.755 118.122 348.576 118.122 348.331C118.122 348.087 138.681 347.908 164.047 347.908C189.412 347.908 209.956 348.103 209.956 348.331Z" fill="#263238"/>
<path d="M209.956 364.199C209.956 364.427 189.396 364.623 164.047 364.623C138.698 364.623 118.122 364.427 118.122 364.199C118.122 363.971 138.681 363.775 164.047 363.775C189.412 363.775 209.956 363.955 209.956 364.199Z" fill="#263238"/>
<path d="M209.956 382.429C209.956 382.657 189.396 382.853 164.047 382.853C138.698 382.853 118.122 382.657 118.122 382.429C118.122 382.201 138.681 382.006 164.047 382.006C189.412 382.006 209.956 382.185 209.956 382.429Z" fill="#263238"/>
<path d="M312.607 283.981C312.607 284.209 304.217 284.405 293.856 284.405C283.495 284.405 275.105 284.209 275.105 283.981C275.105 283.753 283.495 283.557 293.856 283.557C304.217 283.557 312.607 283.753 312.607 283.981Z" fill="#263238"/>
<path d="M82.4276 674.157L78.3222 690.807L106.636 694L107.663 677.497L82.4276 674.157Z" fill="#FDC800"/>
<path d="M95.2163 674.972C95.1896 677.55 94.8782 680.118 94.2877 682.629C93.9687 685.189 93.3733 687.707 92.5119 690.139C92.5398 687.566 92.8513 685.003 93.4405 682.498C93.7609 679.933 94.3562 677.41 95.2163 674.972Z" fill="#263238"/>
<path d="M106.751 692.175C105.371 692.145 103.997 691.992 102.645 691.719L92.8704 690.269C89.0419 689.683 85.5719 689.096 83.0956 688.64C81.7336 688.443 80.396 688.104 79.1042 687.63C80.4843 687.661 81.8586 687.819 83.2096 688.102L92.9844 689.552C96.8129 690.122 100.283 690.709 102.759 691.181C104.121 691.373 105.458 691.706 106.751 692.175Z" fill="#263238"/>
<path d="M211.927 681.521L211.829 678.263L180.876 679.028L181.071 689.846L182.977 689.927C191.482 690.204 226.182 690.742 231.851 688.901C238.172 686.816 211.927 681.521 211.927 681.521Z" fill="#FDC800"/>
<g opacity="0.4">
<path d="M192.296 689.325C191.805 686.718 190.351 684.391 188.223 682.808C186.16 681.228 183.577 680.483 180.99 680.723L181.185 689.325H192.296Z" fill="white"/>
</g>
<g opacity="0.4">
<path d="M224.765 684.568C224.765 684.568 233.969 687.011 232.91 688.543C231.851 690.074 196.711 690.84 181.202 689.83V689.129L222.142 688.592C222.142 688.592 222.973 684.682 224.765 684.568Z" fill="white"/>
</g>
<path d="M180.713 689.129H181.234H182.749L188.354 689.259C193.062 689.259 199.595 689.259 206.795 689.178C213.996 689.096 220.529 688.738 225.237 688.477L230.825 688.151L232.34 688.021H232.861H232.324H230.809L225.221 688.249C220.513 688.461 213.996 688.689 206.795 688.852C199.595 689.015 193.078 689.031 188.354 689.031H181.234C181.058 689.049 180.884 689.082 180.713 689.129Z" fill="#263238"/>
<path d="M222.125 689.064C222.357 688.134 222.69 687.233 223.119 686.376C223.651 685.578 224.274 684.845 224.976 684.193C224.027 684.56 223.248 685.269 222.793 686.18C222.234 687.031 221.997 688.054 222.125 689.064Z" fill="#263238"/>
<path d="M212.905 684.665C212.986 684.665 213.41 684.176 213.833 683.459C214.148 683.052 214.366 682.579 214.468 682.074C214.371 682.074 213.947 682.547 213.524 683.264C213.1 683.981 212.905 684.616 212.905 684.665Z" fill="#263238"/>
<path d="M210.445 683.394C210.445 683.475 210.998 683.15 211.52 682.661C212.041 682.172 212.399 681.716 212.318 681.635C212.237 681.553 211.78 681.895 211.259 682.384C210.738 682.873 210.379 683.264 210.445 683.394Z" fill="#263238"/>
<path d="M208.815 680.543C209.341 680.713 209.896 680.768 210.445 680.706C211.341 680.706 212.074 680.609 212.074 680.495C211.55 680.319 210.993 680.264 210.445 680.332C209.532 680.348 208.799 680.429 208.815 680.543Z" fill="#263238"/>
<path d="M208.229 678.507C208.789 678.786 209.401 678.946 210.025 678.98C210.65 679.014 211.275 678.919 211.862 678.703C211.258 678.61 210.647 678.577 210.037 678.605C209.44 678.507 208.833 678.474 208.229 678.507Z" fill="#263238"/>
<path d="M213.947 681.961C214.6 682.07 215.266 682.07 215.918 681.961C216.633 681.857 217.337 681.688 218.02 681.456C218.434 681.324 218.832 681.15 219.209 680.934C219.442 680.798 219.612 680.576 219.682 680.315C219.71 680.169 219.696 680.018 219.641 679.879C219.586 679.741 219.493 679.621 219.372 679.533C218.879 679.309 218.343 679.197 217.802 679.205C217.261 679.213 216.728 679.341 216.242 679.579C215.756 679.818 215.329 680.161 214.992 680.584C214.654 681.007 214.414 681.499 214.289 682.026C214.289 682.352 214.289 682.547 214.289 682.547C214.481 681.958 214.773 681.407 215.153 680.918C215.576 680.391 216.141 679.995 216.782 679.778C217.554 679.505 218.402 679.546 219.144 679.892C219.454 680.12 219.34 680.494 218.998 680.706C218.645 680.905 218.274 681.069 217.89 681.195C217.231 681.439 216.556 681.635 215.87 681.781C214.697 681.879 213.947 681.896 213.947 681.961Z" fill="#263238"/>
<path d="M214.534 682.042C214.769 681.627 214.844 681.141 214.745 680.674C214.67 680.158 214.475 679.667 214.175 679.24C214.006 678.955 213.768 678.717 213.484 678.546C213.199 678.375 212.877 678.278 212.546 678.263C212.348 678.313 212.177 678.437 212.068 678.61C211.959 678.783 211.92 678.991 211.96 679.191C212.019 679.506 212.141 679.805 212.318 680.071C212.589 680.5 212.912 680.894 213.279 681.244C213.915 681.831 214.403 682.059 214.42 682.01C214.436 681.961 214.029 681.668 213.458 681.065C213.138 680.703 212.854 680.31 212.611 679.892C212.334 679.485 212.123 678.735 212.611 678.637C213.1 678.54 213.621 679.061 213.931 679.436C214.209 679.822 214.408 680.259 214.517 680.723C214.566 681.161 214.571 681.603 214.534 682.042Z" fill="#263238"/>
<path d="M181.153 680.706C181.153 680.706 182.033 680.608 183.417 680.706C185.231 680.868 186.963 681.534 188.419 682.628C189.881 683.741 191.008 685.235 191.677 686.946C192.182 688.249 192.247 689.129 192.312 689.129C192.348 688.924 192.348 688.714 192.312 688.51C192.25 687.954 192.124 687.407 191.938 686.88C191.35 685.084 190.23 683.509 188.725 682.365C187.221 681.221 185.403 680.563 183.515 680.478C182.974 680.416 182.427 680.416 181.886 680.478C181.63 680.511 181.382 680.588 181.153 680.706Z" fill="#263238"/>
<path d="M196.092 686.246C199.071 686.762 202.12 686.723 205.085 686.132C205.085 686.034 203.065 686.132 200.588 686.229C198.112 686.327 196.108 686.148 196.092 686.246Z" fill="#263238"/>
<path d="M190.097 686.376C190.015 686.376 190.26 686.8 190.471 687.256C190.683 687.712 190.814 688.119 190.928 688.103C191.042 688.087 191.074 687.614 190.814 687.093C190.553 686.572 190.097 686.295 190.097 686.376Z" fill="#263238"/>
<path d="M187.734 683.59C187.734 683.671 187.881 683.981 188.207 684.307C188.533 684.632 188.842 684.812 188.924 684.746C189.005 684.681 188.777 684.355 188.451 684.03C188.125 683.704 187.816 683.525 187.734 683.59Z" fill="#263238"/>
<path d="M184.46 682.384C184.46 682.482 184.9 682.466 185.356 682.612C185.812 682.759 186.138 683.003 186.219 682.922C186.301 682.841 186.024 682.433 185.47 682.27C184.916 682.107 184.427 682.287 184.46 682.384Z" fill="#263238"/>
<path d="M182.147 681.814C182.147 681.912 182.277 682.075 182.538 682.156C182.798 682.238 183.043 682.254 183.075 682.156C183.108 682.058 182.929 681.912 182.668 681.814C182.407 681.716 182.179 681.716 182.147 681.814Z" fill="#263238"/>
</svg>
