<svg width="120" height="21" viewBox="0 0 120 21" fill="none" xmlns="http://www.w3.org/2000/svg">
<path d="M117.029 20.3799C117.261 20.3565 117.489 20.3024 117.706 20.2191C118.024 20.0948 118.301 19.8834 118.504 19.6091C118.707 19.3348 118.829 19.0088 118.855 18.6685C118.855 16.8422 118.855 14.1773 118.855 10.7544C118.855 9.04294 118.855 7.12472 118.855 5.01123C118.855 4.49435 118.855 3.95449 118.855 3.41464C118.93 2.89079 118.816 2.3574 118.533 1.90993C118.375 1.69538 118.17 1.52043 117.932 1.39885C117.695 1.27727 117.433 1.21237 117.166 1.20926H115.375H98.7769L2.7052 0.853189C2.4593 0.84901 2.21603 0.904255 1.99605 1.01424C1.77608 1.12423 1.58592 1.28571 1.44172 1.48494C1.16434 1.93423 1.05829 2.46848 1.14306 2.98965C1.14306 4.13828 1.14306 5.28691 1.14306 6.43555C1.14306 8.73281 1.14306 11.0301 1.14306 13.3273C1.14306 14.476 1.14306 15.6246 1.14306 16.7732C1.09541 17.3082 1.09541 17.8464 1.14306 18.3813C1.2034 18.6107 1.31556 18.8231 1.47088 19.0023C1.6262 19.1816 1.82055 19.3228 2.03899 19.4151C2.26532 19.5052 2.50765 19.5482 2.75116 19.5415H8.59769L34.1088 19.6793L77.2974 19.9435L106.415 20.1732L114.329 20.2651H116.385C116.856 20.2651 117.086 20.2651 117.086 20.2651H116.385H114.329H106.415H77.2974L34.1088 20.1272L8.59769 20.0239H2.75116C2.4294 20.0369 2.10849 19.9821 1.80927 19.8631C1.50682 19.734 1.23785 19.5375 1.02286 19.2887C0.807875 19.0399 0.652549 18.7453 0.568744 18.4273C0.502252 18.1258 0.479049 17.8164 0.499828 17.5084V16.6584C0.499828 15.5097 0.499828 14.3611 0.499828 13.2125C0.499828 10.9152 0.499828 8.61794 0.499828 6.32068C0.499828 5.17204 0.499828 4.02341 0.499828 2.87478C0.477922 2.56887 0.477922 2.26178 0.499828 1.95587C0.54287 1.61798 0.673546 1.29724 0.878879 1.02548C1.07703 0.748215 1.33928 0.522981 1.64329 0.368977C1.9473 0.214974 2.28404 0.136782 2.62481 0.141042L98.6965 0.669403L115.294 0.784274H117.086C117.402 0.784518 117.713 0.860848 117.993 1.00681C118.273 1.15277 118.513 1.36406 118.694 1.62277C119.018 2.12216 119.149 2.72246 119.062 3.31126C119.062 3.85112 119.062 4.39098 119.062 4.90786C119.062 6.99837 119.062 8.91659 119.062 10.651C119.062 14.0969 118.981 16.7388 118.958 18.5766C118.93 18.93 118.802 19.2679 118.588 19.5508C118.375 19.8336 118.085 20.0496 117.752 20.1732C117.535 20.3079 117.284 20.3795 117.029 20.3799Z" fill="#E0E0E0"/>
</svg>
