<svg width="6" height="6" viewBox="0 0 6 6" fill="none" xmlns="http://www.w3.org/2000/svg">
<path d="M5.13593 3.12126C5.10204 3.58329 4.93326 4.0252 4.65053 4.39219C4.36779 4.75919 3.98355 5.0351 3.54545 5.18573C3.10735 5.33636 2.63466 5.35507 2.18602 5.23954C1.73738 5.12401 1.33252 4.87934 1.02167 4.53584C0.71081 4.19234 0.507636 3.76512 0.437325 3.30722C0.367015 2.84931 0.43266 2.38084 0.626141 1.9599C0.819622 1.53896 1.13243 1.18409 1.52574 0.939281C1.91905 0.694473 2.37555 0.570501 2.83867 0.582752C3.47752 0.621318 4.07583 0.908689 4.50528 1.38323C4.93474 1.85778 5.16113 2.48174 5.13593 3.12126Z" fill="#FF725E"/>
</svg>
