<svg width="152" height="317" viewBox="0 0 152 317" fill="none" xmlns="http://www.w3.org/2000/svg">
<path d="M133.985 0.563281H111.747C111.022 0.576731 110.306 0.732996 109.641 1.02315C108.975 1.3133 108.374 1.73165 107.871 2.25431C107.367 2.77698 106.971 3.3937 106.706 4.06927C106.441 4.74484 106.312 5.46601 106.326 6.19158V10.2233C106.339 10.9483 106.21 11.6689 105.945 12.3438C105.68 13.0187 105.284 13.6347 104.78 14.1564C104.277 14.6782 103.675 15.0955 103.01 15.3844C102.345 15.6733 101.629 15.8281 100.904 15.8401L57.5547 15.6448C56.0883 15.6057 54.6972 14.9862 53.6872 13.9223C52.6771 12.8584 52.1306 11.4371 52.1677 9.97059V5.93888C52.2047 4.47428 51.6598 3.0547 50.6522 1.99112C49.6446 0.927553 48.2565 0.306719 46.792 0.264634H38.9699L19.5005 0.17275C14.8697 0.145179 10.4166 1.9537 7.11632 5.20231C3.81603 8.45093 1.93748 12.8749 1.89198 17.5056L0.74335 298.255C0.732767 300.552 1.17477 302.829 2.04415 304.955C2.91353 307.082 4.19325 309.016 5.81023 310.648C7.4272 312.28 9.34978 313.577 11.4682 314.466C13.5866 315.355 15.8593 315.818 18.1566 315.829L132.652 316.357C134.951 316.368 137.23 315.925 139.357 315.055C141.485 314.185 143.421 312.905 145.054 311.287C146.687 309.669 147.985 307.745 148.875 305.625C149.764 303.505 150.227 301.231 150.238 298.932L151.387 18.1833C151.414 13.5396 149.596 9.07492 146.333 5.77084C143.07 2.46675 138.629 0.593651 133.985 0.563281Z" fill="white"/>
</svg>
