<svg width="167" height="339" viewBox="0 0 167 339" fill="none" xmlns="http://www.w3.org/2000/svg">
<path d="M139.71 338.291L24.9728 337.763C18.3469 337.726 12.0063 335.062 7.3436 330.354C2.68094 325.646 0.0774585 319.28 0.104952 312.654L1.3225 25.0246C1.33604 21.7418 1.99641 18.4939 3.26588 15.4666C4.53535 12.4392 6.38904 9.69171 8.72094 7.38114C11.0528 5.07057 13.8173 3.24223 16.8562 2.00063C19.8951 0.75904 23.1489 0.128542 26.4316 0.145172L141.157 0.673542C147.783 0.706978 154.125 3.36888 158.79 8.07462C163.454 12.7804 166.061 19.1452 166.036 25.7712L164.819 313.389C164.805 316.673 164.145 319.922 162.876 322.95C161.607 325.979 159.753 328.728 157.422 331.04C155.09 333.353 152.326 335.183 149.287 336.427C146.248 337.672 142.994 338.305 139.71 338.291Z" fill="#455A64"/>
</svg>
