<svg width="5" height="6" viewBox="0 0 5 6" fill="none" xmlns="http://www.w3.org/2000/svg">
<path d="M4.76957 3.1787C4.73788 3.64142 4.57091 4.08462 4.2894 4.45321C4.0079 4.82181 3.62426 5.09955 3.1862 5.25191C2.74814 5.40427 2.27499 5.42452 1.82551 5.31017C1.37603 5.19581 0.970056 4.95189 0.658071 4.60871C0.346087 4.26553 0.141841 3.83822 0.0707149 3.37991C-0.000411514 2.9216 0.064727 2.45251 0.258023 2.03091C0.45132 1.60931 0.764256 1.25382 1.15793 1.00861C1.55161 0.763406 2.00867 0.639273 2.4723 0.651698C3.10909 0.69025 3.70564 0.976027 4.13478 1.44808C4.56392 1.92013 4.7917 2.54113 4.76957 3.1787Z" fill="#FF725E"/>
</svg>
