<svg width="6" height="6" viewBox="0 0 6 6" fill="none" xmlns="http://www.w3.org/2000/svg">
<path d="M5.45284 3.15571C5.41895 3.61774 5.25015 4.05965 4.96742 4.42665C4.68469 4.79364 4.30044 5.06956 3.86234 5.22019C3.42424 5.37082 2.95155 5.38952 2.50291 5.27399C2.05428 5.15846 1.64943 4.91379 1.33858 4.57029C1.02772 4.2268 0.824527 3.79961 0.754217 3.3417C0.683906 2.8838 0.749569 2.41529 0.94305 1.99435C1.13653 1.57342 1.44932 1.21854 1.84263 0.973736C2.23594 0.728927 2.69246 0.604955 3.15557 0.617207C3.79443 0.655772 4.39272 0.943143 4.82218 1.41769C5.25163 1.89223 5.47804 2.51619 5.45284 3.15571Z" fill="#FF725E"/>
</svg>
