<svg width="16" height="18" viewBox="0 0 16 18" fill="none" xmlns="http://www.w3.org/2000/svg">
<path d="M9.65313 9.49986C10.4511 9.14848 11.128 8.57021 11.5998 7.83702C12.0716 7.10382 12.3173 6.24807 12.3065 5.37627C12.3362 4.80954 12.2502 4.2427 12.0538 3.71026C11.8574 3.17782 11.5547 2.69094 11.1641 2.27927C10.7734 1.8676 10.3031 1.53977 9.78167 1.31574C9.26025 1.09172 8.69868 0.976181 8.13118 0.976181C7.56367 0.976181 7.0021 1.09172 6.48068 1.31574C5.95926 1.53977 5.48891 1.8676 5.09828 2.27927C4.70764 2.69094 4.40491 3.17782 4.20851 3.71026C4.01212 4.2427 3.92618 4.80954 3.95592 5.37627C3.93842 6.2568 4.18218 7.12278 4.65646 7.86487C5.13075 8.60696 5.81426 9.19189 6.62072 9.54581C0.188376 10.5107 0.475563 17.4944 0.475563 17.4944L15.6835 17.5633C15.6835 17.5633 16.0395 10.4532 9.65313 9.49986Z" fill="#FF725E"/>
</svg>
