<svg width="119" height="21" viewBox="0 0 119 21" fill="none" xmlns="http://www.w3.org/2000/svg">
<path d="M116.052 20.4252C116.285 20.3978 116.515 20.3556 116.742 20.2988C117.061 20.1973 117.355 20.0291 117.605 19.8053C117.854 19.5816 118.053 19.3074 118.189 19.0009C118.369 18.537 118.44 18.0378 118.396 17.5421C118.396 16.9793 118.396 16.3935 118.396 15.7158C118.396 14.3949 118.396 12.8672 118.396 11.1213V3.82744C118.45 3.29938 118.334 2.76769 118.063 2.31124C117.772 1.85165 117.329 1.50979 116.811 1.34639C116.239 1.24022 115.656 1.2055 115.076 1.24302H98.5473L2.80873 0.886944C2.29376 0.88816 1.79675 1.07634 1.41011 1.4165C1.02348 1.75665 0.773533 2.22561 0.706728 2.73623C0.706728 3.88486 0.706728 5.03349 0.706728 6.18212C0.706728 8.47939 0.706728 10.7767 0.706728 13.0739C0.706728 14.2226 0.706728 15.3712 0.706728 16.5198C0.663954 17.0528 0.687099 17.5891 0.775643 18.1164C0.913201 18.5851 1.20968 18.9912 1.61414 19.2651C2.03579 19.5404 2.53623 19.6695 3.03845 19.6326H8.035L33.4543 19.7705L76.4935 20.0346L105.508 20.2644L113.399 20.3563H105.508H76.4935L33.4543 20.2299L8.035 20.1265H3.03845C2.41666 20.1685 1.79854 20.0028 1.28104 19.6556C0.758386 19.2936 0.37694 18.762 0.201327 18.1509C0.0983764 17.5673 0.067513 16.9732 0.109434 16.382C0.109434 15.2334 0.109434 14.0847 0.109434 12.9361C0.109434 10.6388 0.109434 8.34156 0.109434 6.04429C0.109434 4.89566 0.109434 3.74704 0.109434 2.54098C0.190638 1.88515 0.508615 1.28158 1.00358 0.843723C1.49854 0.40587 2.1364 0.163892 2.79723 0.1633L98.5358 0.691661L115.065 0.818029C115.68 0.780271 116.298 0.822727 116.902 0.944362C117.499 1.13935 118.003 1.54858 118.315 2.09299C118.612 2.59892 118.741 3.18616 118.683 3.76999C118.683 4.30985 118.683 4.84972 118.683 5.36661C118.683 7.44563 118.683 9.35236 118.683 11.1098C118.683 12.8672 118.683 14.3489 118.683 15.7043C118.683 16.359 118.683 16.9678 118.683 17.5306C118.727 18.0444 118.644 18.5611 118.442 19.0353C118.293 19.3523 118.077 19.6333 117.809 19.8593C117.542 20.0853 117.228 20.2509 116.891 20.3448C116.622 20.437 116.334 20.4645 116.052 20.4252Z" fill="#E0E0E0"/>
</svg>
