<svg width="5" height="6" viewBox="0 0 5 6" fill="none" xmlns="http://www.w3.org/2000/svg">
<path d="M4.80768 3.08681C4.83028 3.41064 4.786 3.73562 4.67761 4.0416C4.56923 4.34758 4.39905 4.628 4.17765 4.86539C3.95625 5.10279 3.68837 5.29209 3.39068 5.42152C3.09299 5.55095 2.77184 5.61775 2.44723 5.61775C2.12262 5.61775 1.80148 5.55095 1.50378 5.42152C1.20609 5.29209 0.938215 5.10279 0.716815 4.86539C0.495415 4.628 0.325233 4.34758 0.216847 4.0416C0.10846 3.73562 0.0641953 3.41064 0.0867983 3.08681C0.0641953 2.76299 0.10846 2.43798 0.216847 2.13199C0.325233 1.82601 0.495415 1.54559 0.716815 1.3082C0.938215 1.07081 1.20609 0.881506 1.50378 0.752077C1.80148 0.622647 2.12262 0.555847 2.44723 0.555847C2.77184 0.555847 3.09299 0.622647 3.39068 0.752077C3.68837 0.881506 3.95625 1.07081 4.17765 1.3082C4.39905 1.54559 4.56923 1.82601 4.67761 2.13199C4.786 2.43798 4.83028 2.76299 4.80768 3.08681Z" fill="#FF725E"/>
</svg>
