<svg width="6" height="6" viewBox="0 0 6 6" fill="none" xmlns="http://www.w3.org/2000/svg">
<path d="M5.49091 3.05235C5.45702 3.51438 5.28824 3.95629 5.00551 4.32328C4.72277 4.69028 4.33853 4.96619 3.90043 5.11682C3.46233 5.26745 2.98964 5.28616 2.541 5.17063C2.09236 5.0551 1.68751 4.81043 1.37665 4.46693C1.06579 4.12343 0.862616 3.69621 0.792306 3.23831C0.721995 2.7804 0.787641 2.31193 0.981121 1.89099C1.1746 1.47005 1.48741 1.11518 1.88072 0.870373C2.27403 0.625564 2.73053 0.501592 3.19365 0.513844C3.83357 0.549501 4.43364 0.836029 4.8637 1.31124C5.29376 1.78645 5.51911 2.41205 5.49091 3.05235Z" fill="#FF725E"/>
</svg>
