<svg width="6" height="6" viewBox="0 0 6 6" fill="none" xmlns="http://www.w3.org/2000/svg">
<path d="M5.09776 3.21316C5.0664 3.67348 4.90115 4.11458 4.62233 4.4822C4.34351 4.84982 3.9633 5.12793 3.52849 5.28226C3.09367 5.43658 2.62322 5.46041 2.17503 5.35082C1.72685 5.24123 1.32047 5.00298 1.00593 4.66542C0.691388 4.32786 0.482378 3.90572 0.404658 3.45092C0.326937 2.99613 0.383902 2.52853 0.568498 2.10568C0.753094 1.68282 1.05728 1.32314 1.44364 1.07093C1.83 0.818726 2.28165 0.684977 2.74304 0.68615C3.39001 0.710101 4.00111 0.989528 4.44247 1.46318C4.88383 1.93683 5.11948 2.56611 5.09776 3.21316Z" fill="#FF725E"/>
</svg>
