<svg width="5" height="6" viewBox="0 0 5 6" fill="none" xmlns="http://www.w3.org/2000/svg">
<path d="M4.73128 3.28208C4.69992 3.7424 4.53466 4.18353 4.25585 4.55115C3.97703 4.91877 3.59682 5.19685 3.162 5.35118C2.72719 5.5055 2.25674 5.52933 1.80855 5.41974C1.36036 5.31015 0.95399 5.0719 0.639447 4.73434C0.324905 4.39678 0.11593 3.97464 0.0382097 3.51984C-0.0395106 3.06504 0.0174186 2.59745 0.202015 2.1746C0.386611 1.75174 0.6908 1.39206 1.07716 1.13985C1.46352 0.887645 1.9152 0.753931 2.37659 0.755104C3.02356 0.779056 3.63466 1.05845 4.07602 1.5321C4.51738 2.00575 4.753 2.63503 4.73128 3.28208Z" fill="#FF725E"/>
</svg>
