<svg width="6" height="6" viewBox="0 0 6 6" fill="none" xmlns="http://www.w3.org/2000/svg">
<path d="M5.04813 3.31653C5.01644 3.77925 4.84947 4.22245 4.56797 4.59104C4.28646 4.95964 3.90285 5.23738 3.4648 5.38974C3.02674 5.5421 2.55357 5.56239 2.10409 5.44803C1.65461 5.33368 1.24862 5.08972 0.936633 4.74654C0.624648 4.40336 0.420403 3.97605 0.349276 3.51774C0.27815 3.05943 0.343306 2.59034 0.536602 2.16874C0.729899 1.74714 1.04282 1.39165 1.4365 1.14644C1.83017 0.901235 2.28723 0.777136 2.75086 0.789561C3.38765 0.828114 3.98421 1.11386 4.41334 1.58591C4.84248 2.05796 5.07026 2.67896 5.04813 3.31653Z" fill="#FF725E"/>
</svg>
