<svg width="119" height="21" viewBox="0 0 119 21" fill="none" xmlns="http://www.w3.org/2000/svg">
<path d="M116.282 20.8401C116.514 20.8116 116.744 20.7694 116.971 20.7137C117.292 20.6116 117.587 20.4419 117.837 20.216C118.087 19.9901 118.285 19.7133 118.418 19.4043C118.599 18.9406 118.67 18.4412 118.625 17.9455C118.625 17.3942 118.625 16.7969 118.625 16.1307C118.625 14.7983 118.625 13.2821 118.625 11.5361V4.24234C118.68 3.71427 118.563 3.18259 118.292 2.72613C118.009 2.25801 117.563 1.9105 117.04 1.74981C116.468 1.64771 115.885 1.61685 115.306 1.65791H98.7769L3.03832 1.30184C2.52336 1.30306 2.02636 1.49122 1.63972 1.83138C1.25309 2.17153 1.00313 2.64052 0.936321 3.15114C0.936321 4.24234 0.936321 5.44841 0.936321 6.59704C0.936321 8.8943 0.936321 11.1916 0.936321 13.4888C0.936321 14.6375 0.936321 15.7861 0.936321 16.9347C0.893533 17.4716 0.916675 18.0116 1.00524 18.5428C1.14865 19.0086 1.44383 19.4129 1.84373 19.6914C2.26803 19.9607 2.76644 20.0893 3.26805 20.059H4.86464H8.18419L33.6034 20.1854L76.6427 20.4495L105.657 20.6793L113.548 20.7712H105.657H76.6427L33.5805 20.7252L8.16122 20.6333H3.16467C2.54339 20.6702 1.92688 20.5049 1.40727 20.1624C0.884607 19.8003 0.503161 19.2688 0.327547 18.6577C0.224597 18.074 0.193734 17.4799 0.235655 16.8888C0.235655 15.7401 0.235655 14.5915 0.235655 13.4429C0.235655 11.1456 0.235655 8.84835 0.235655 6.55108C0.235655 5.40245 0.235655 4.25382 0.235655 3.10518C0.319467 2.44839 0.639781 1.84466 1.13663 1.407C1.63349 0.969346 2.27283 0.727785 2.93495 0.727524L98.6735 1.25589L115.202 1.38224C115.818 1.34448 116.436 1.38695 117.04 1.50859C117.637 1.70358 118.14 2.1128 118.453 2.65722C118.75 3.16314 118.879 3.7504 118.821 4.33423C118.821 4.87409 118.821 5.40246 118.821 5.93083C118.821 8.00985 118.821 9.91659 118.821 11.674C118.821 13.4314 118.821 14.9131 118.821 16.2685C118.821 16.9232 118.821 17.532 118.821 18.0948C118.862 18.6085 118.78 19.1247 118.579 19.5996C118.43 19.9165 118.215 20.1975 117.947 20.4235C117.679 20.6495 117.366 20.8151 117.029 20.909C116.778 20.9297 116.525 20.9064 116.282 20.8401Z" fill="#E0E0E0"/>
</svg>
