<svg width="6" height="6" viewBox="0 0 6 6" fill="none" xmlns="http://www.w3.org/2000/svg">
<path d="M5.4146 3.24761C5.4372 3.57143 5.39294 3.89645 5.28455 4.20243C5.17616 4.50841 5.00598 4.78883 4.78458 5.02622C4.56318 5.26361 4.29529 5.45292 3.99759 5.58235C3.6999 5.71177 3.37878 5.77854 3.05416 5.77854C2.72955 5.77854 2.40839 5.71177 2.1107 5.58235C1.81301 5.45292 1.54515 5.26361 1.32375 5.02622C1.10235 4.78883 0.932167 4.50841 0.82378 4.20243C0.715394 3.89645 0.671129 3.57143 0.693732 3.24761C0.671129 2.92378 0.715394 2.59877 0.82378 2.29279C0.932167 1.9868 1.10235 1.70639 1.32375 1.46899C1.54515 1.2316 1.81301 1.04233 2.1107 0.912904C2.40839 0.783475 2.72955 0.716675 3.05416 0.716675C3.37878 0.716675 3.6999 0.783475 3.99759 0.912904C4.29529 1.04233 4.56318 1.2316 4.78458 1.46899C5.00598 1.70639 5.17616 1.9868 5.28455 2.29279C5.39294 2.59877 5.4372 2.92378 5.4146 3.24761Z" fill="#FF725E"/>
</svg>
